<svg width="52" height="52" viewBox="0 0 52 52" fill="none" xmlns="http://www.w3.org/2000/svg">
<path d="M52 26C52 40.3596 40.3596 52 26 52C11.6404 52 0 40.3596 0 26C0 11.6404 11.6404 0 26 0C40.3596 0 52 11.6404 52 26Z" fill="url(#paint0_linear)"/>
<path d="M11.3746 22.0616V21.6823C11.3746 15.5949 16.3273 10.6422 22.4147 10.6422C28.1344 10.6422 32.8519 15.0141 33.4013 20.5917L36.0836 23.0391C36.1146 22.709 36.1316 22.3829 36.1316 22.0616V21.6823C36.1316 14.1191 29.9784 7.96582 22.4147 7.96582C14.8515 7.96582 8.69824 14.1191 8.69824 21.6823V22.0616C8.69824 25.8868 10.891 30.3441 15.2165 35.3099C18.3518 38.9098 21.4435 41.4199 21.5737 41.5251L22.4147 42.2047V38.7266C19.7027 36.3502 11.3746 28.5255 11.3746 22.0616Z" fill="url(#paint1_linear)"/>
<path d="M30.6448 32.7896H34.6593V36.804H30.6448V32.7896Z" fill="url(#paint2_linear)"/>
<path d="M16.542 21.6823C16.542 24.9204 19.1767 27.5551 22.4148 27.5551C25.6529 27.5551 28.2875 24.9204 28.2875 21.6823C28.2875 18.4442 25.6529 15.8096 22.4148 15.8096C19.1767 15.8096 16.542 18.4442 16.542 21.6823ZM25.2407 21.6823C25.2407 23.2403 23.9727 24.5082 22.4148 24.5082C20.8568 24.5082 19.5889 23.2407 19.5889 21.6823C19.5889 20.1244 20.8564 18.8564 22.4148 18.8564C23.9727 18.8564 25.2407 20.1244 25.2407 21.6823Z" fill="url(#paint3_linear)"/>
<path d="M43.3018 32.9963L32.6187 23.2502L21.9355 32.9963L23.989 35.2473L24.5682 34.7189V38.5957C24.5682 40.6984 26.2789 42.4091 28.382 42.4091H36.8557C38.9588 42.4091 40.6695 40.6984 40.6695 38.5957V34.7189L41.2487 35.2473L43.3018 32.9963ZM37.6222 38.5957C37.6222 39.0182 37.2782 39.3622 36.8557 39.3622H28.3816C27.9587 39.3622 27.6147 39.0182 27.6147 38.5957V31.939L32.6187 27.3742L37.6222 31.939V38.5957Z" fill="url(#paint4_linear)"/>
<defs>
<linearGradient id="paint0_linear" x1="0" y1="26" x2="52" y2="26" gradientUnits="userSpaceOnUse">
<stop stop-color="#2168FD"/>
<stop offset="1" stop-color="#FFB6FF"/>
</linearGradient>
<linearGradient id="paint1_linear" x1="22.4149" y1="7.96582" x2="22.4149" y2="42.2047" gradientUnits="userSpaceOnUse">
<stop/>
<stop offset="1"/>
</linearGradient>
<linearGradient id="paint2_linear" x1="32.652" y1="32.7896" x2="32.652" y2="36.804" gradientUnits="userSpaceOnUse">
<stop/>
<stop offset="1"/>
</linearGradient>
<linearGradient id="paint3_linear" x1="22.4148" y1="15.8096" x2="22.4148" y2="27.5551" gradientUnits="userSpaceOnUse">
<stop/>
<stop offset="1"/>
</linearGradient>
<linearGradient id="paint4_linear" x1="32.6187" y1="23.2502" x2="32.6187" y2="42.4091" gradientUnits="userSpaceOnUse">
<stop/>
<stop offset="1"/>
</linearGradient>
</defs>
</svg>
