<svg width="84" height="87" viewBox="0 0 84 87" fill="none" xmlns="http://www.w3.org/2000/svg">
<g clip-path="url(#clip0)">
<path d="M61.2626 0H22.738C10.2001 0 0 10.5643 0 23.5501V63.4498C0 76.4355 10.2001 86.9998 22.738 86.9998H61.2626C73.7999 86.9998 84 76.4355 84 63.4498V23.5501C84 10.5643 73.7999 0 61.2626 0ZM79.0756 63.4498C79.0756 73.6232 71.0846 81.8995 61.2626 81.8995H22.738C12.9154 81.8995 4.92444 73.6232 4.92444 63.4498V23.5501C4.92444 13.3767 12.9154 5.1003 22.738 5.1003H61.2626C71.0846 5.1003 79.0756 13.3767 79.0756 23.5501V63.4498Z" fill="#FFB6FF"/>
<path d="M35.9546 42.187C38.6513 40.971 40.001 38.3578 40.001 34.3474C40.001 28.5628 36.8114 25.6701 30.4322 25.6701H21.2447C20.5141 25.6701 19.8796 25.8506 19.3407 26.2124C18.8004 26.5741 18.5312 27.0673 18.5312 27.6912V59.7387C18.5312 60.2651 18.785 60.7251 19.2932 61.1193C19.8002 61.5136 20.4513 61.7107 21.2447 61.7107H31.3371C34.2563 61.7107 36.573 60.881 38.2873 59.221C40.001 57.5616 40.8578 54.9072 40.8578 51.2586V50.2231C40.8578 47.9225 40.4445 46.1722 39.6197 44.9721C38.7943 43.7727 37.5728 42.8448 35.9546 42.187ZM24.6721 31.2908H29.956C31.1621 31.2908 32.1061 31.6605 32.7887 32.3999C33.4706 33.1394 33.8121 34.1503 33.8121 35.432C33.8121 36.7469 33.4866 37.7823 32.8361 38.5383C32.1856 39.2944 31.2416 39.672 30.0041 39.672H24.6721V31.2908ZM34.669 50.7163C34.669 54.2992 33.1296 56.0907 30.0515 56.0907H24.6721V44.7013H30.0515C31.5749 44.7013 32.7246 45.1128 33.5026 45.9339C34.28 46.7556 34.669 48.0871 34.669 49.9277V50.7163Z" fill="#FFB6FF"/>
<path d="M62.613 51.6528C63.2788 51.6528 63.8184 51.6203 64.2312 51.5552C64.6432 51.4902 65.0957 51.3269 65.5879 51.0667C66.0794 50.8065 66.4447 50.3585 66.6825 49.7239C66.9209 49.0894 67.0401 48.2842 67.0401 47.3072C67.0401 44.6329 66.0794 42.412 64.16 40.6457C62.2393 38.8795 59.9303 37.9954 57.2335 37.9954C54.3451 37.9954 51.8855 38.9658 49.8546 40.9046C47.8236 42.8441 46.8079 45.1619 46.8079 47.8568V52.0471C46.8079 55.0718 47.8794 57.5124 50.0212 59.369C52.1636 61.2262 54.9322 62.1548 58.3281 62.1548C60.7083 62.1548 62.6995 61.7034 64.3023 60.7987C65.9045 59.8953 66.7068 58.9827 66.7068 58.062C66.7068 57.4706 66.4845 56.854 66.0403 56.2135C65.5956 55.5723 65.0406 55.2517 64.3741 55.2517C64.0242 55.2517 63.2628 55.565 62.0887 56.1889C60.9147 56.8135 59.7246 57.1255 58.5185 57.1255C56.8362 57.1255 55.4878 56.6901 54.4727 55.8192C53.4562 54.9484 52.9493 53.806 52.9493 52.3922V51.6528H62.613ZM52.9493 46.6162C52.9493 45.5423 53.3614 44.6747 54.1868 44.015C55.0116 43.3552 55.9793 43.0246 57.0906 43.0246C58.264 43.0246 59.2567 43.3632 60.0662 44.0375C60.8749 44.7132 61.28 45.5887 61.28 46.6627C61.28 47.1539 61.1761 47.4838 60.9704 47.6523C60.7634 47.8216 60.4065 47.9059 59.8995 47.9059H52.9493V46.6162Z" fill="#FFB6FF"/>
<path d="M64.704 30.2228H49.3039C47.944 30.2228 46.8411 31.3651 46.8411 32.7729C46.8411 34.1814 47.944 35.3237 49.3039 35.3237H64.704C66.0639 35.3237 67.1669 34.1814 67.1669 32.7729C67.1669 31.3651 66.0639 30.2228 64.704 30.2228Z" fill="#FFB6FF"/>
</g>
<defs>
<clipPath id="clip0">
<rect width="84" height="87" fill="white"/>
</clipPath>
</defs>
</svg>
