<svg width="306" height="298" viewBox="0 0 306 298" fill="none" xmlns="http://www.w3.org/2000/svg">
<path d="M306 129.133V0H173.4V29.8H132.6V0H0V129.133H30.6V168.867H0V298H132.6V268.2H173.4V298H306V168.867H275.4V129.133H306ZM183.6 9.93333H295.8V119.2H183.6V9.93333ZM173.4 168.867V198.667H132.6V168.867H96.9V129.133H132.6V99.3333H173.4V129.133H209.1V168.867H173.4ZM173.4 39.7333V89.4H132.6V39.7333H173.4ZM10.2 9.93333H122.4V119.2H10.2V9.93333ZM40.8 129.133H86.7V168.867H40.8V129.133ZM122.4 288.067H10.2V178.8H122.4V288.067ZM132.6 258.267V208.6H173.4V258.267H132.6ZM295.8 288.067H183.6V178.8H295.8V288.067ZM265.2 168.867H219.3V129.133H265.2V168.867Z" fill="#A495B7"/>
<path d="M239.7 29.8C225.623 29.817 214.217 40.9241 214.2 54.6333V74.5C214.2 88.2141 225.618 99.3333 239.7 99.3333C253.782 99.3333 265.2 88.2141 265.2 74.5V54.6333C265.183 40.9241 253.777 29.817 239.7 29.8ZM255 74.5C255 82.7285 248.149 89.4 239.7 89.4C231.251 89.4 224.4 82.7285 224.4 74.5V54.6333C224.4 46.4049 231.251 39.7333 239.7 39.7333C248.149 39.7333 255 46.4049 255 54.6333V74.5Z" fill="#A495B7"/>
<path d="M260.1 258.267H224.4V238.4H249.9V228.467H224.4V208.6H260.1V198.667H214.2V268.2H260.1V258.267Z" fill="#A495B7"/>
<path d="M40.8 54.6333V74.5C40.8175 88.2092 52.2228 99.3163 66.3 99.3333H86.7V89.4H66.3C57.8507 89.4 51 82.7285 51 74.5V54.6333C51 46.4049 57.8507 39.7333 66.3 39.7333H86.7V29.8H66.3C52.2228 29.817 40.8175 40.9241 40.8 54.6333Z" fill="#A495B7"/>
<path d="M91.8 243.367V223.5C91.7826 209.791 80.3773 198.684 66.3 198.667H40.8V268.2H66.3C80.3773 268.183 91.7826 257.076 91.8 243.367ZM51 208.6H66.3C74.7494 208.6 81.6 215.272 81.6 223.5V243.367C81.6 251.595 74.7494 258.267 66.3 258.267H51V208.6Z" fill="#A495B7"/>
<path d="M15.3 14.9H25.5V24.8334H15.3V14.9Z" fill="#A495B7"/>
<path d="M107.1 14.9H117.3V24.8334H107.1V14.9Z" fill="#A495B7"/>
<path d="M15.3 104.3H25.5V114.233H15.3V104.3Z" fill="#A495B7"/>
<path d="M107.1 104.3H117.3V114.233H107.1V104.3Z" fill="#A495B7"/>
<path d="M188.7 14.9H198.9V24.8334H188.7V14.9Z" fill="#A495B7"/>
<path d="M280.5 14.9H290.7V24.8334H280.5V14.9Z" fill="#A495B7"/>
<path d="M188.7 104.3H198.9V114.233H188.7V104.3Z" fill="#A495B7"/>
<path d="M280.5 104.3H290.7V114.233H280.5V104.3Z" fill="#A495B7"/>
<path d="M188.7 183.767H198.9V193.7H188.7V183.767Z" fill="#A495B7"/>
<path d="M280.5 183.767H290.7V193.7H280.5V183.767Z" fill="#A495B7"/>
<path d="M188.7 273.167H198.9V283.1H188.7V273.167Z" fill="#A495B7"/>
<path d="M280.5 273.167H290.7V283.1H280.5V273.167Z" fill="#A495B7"/>
<path d="M15.3 183.767H25.5V193.7H15.3V183.767Z" fill="#A495B7"/>
<path d="M107.1 183.767H117.3V193.7H107.1V183.767Z" fill="#A495B7"/>
<path d="M15.3 273.167H25.5V283.1H15.3V273.167Z" fill="#A495B7"/>
<path d="M107.1 273.167H117.3V283.1H107.1V273.167Z" fill="#A495B7"/>
</svg>
