<svg width="277" height="65" viewBox="0 0 277 65" fill="none" xmlns="http://www.w3.org/2000/svg">
<g filter="url(#filter0_f)">
<path d="M16 37C16 50.2548 26.7452 61 40 61H249C262.255 61 273 50.2548 273 37V28C273 14.7452 262.255 4 249 4H40C26.7452 4 16 14.7452 16 28V37Z" fill="#A925EA" fill-opacity="0.27"/>
<path d="M16 37C16 50.2548 26.7452 61 40 61H249C262.255 61 273 50.2548 273 37V28C273 14.7452 262.255 4 249 4H40C26.7452 4 16 14.7452 16 28V37Z" fill="url(#paint0_linear)" fill-opacity="0.9"/>
<path d="M16.5 37C16.5 49.9787 27.0213 60.5 40 60.5H249C261.979 60.5 272.5 49.9787 272.5 37V28C272.5 15.0213 261.979 4.5 249 4.5H40C27.0213 4.5 16.5 15.0213 16.5 28V37Z" stroke="black"/>
</g>
<path d="M59.3428 20.992C61.2468 20.992 62.7108 21.536 63.7348 22.624C64.7748 23.696 65.2948 25.248 65.2948 27.28V31.216C65.2948 33.168 64.7748 34.672 63.7348 35.728C62.7108 36.768 61.2068 37.288 59.2228 37.288C57.8628 37.288 56.4388 37.24 54.9508 37.144V21.088C56.3908 21.024 57.8548 20.992 59.3428 20.992ZM59.2228 22.72C58.7268 22.72 57.9828 22.736 56.9908 22.768V35.392C57.9348 35.488 58.6788 35.536 59.2228 35.536C60.4548 35.536 61.4308 35.184 62.1508 34.48C62.8868 33.76 63.2548 32.728 63.2548 31.384V27.136C63.2548 25.68 62.9028 24.584 62.1988 23.848C61.4948 23.096 60.5028 22.72 59.2228 22.72ZM76.6537 20.992C78.4457 20.992 79.7657 21.44 80.6137 22.336C81.4617 23.232 81.8857 24.504 81.8857 26.152V32.128C81.8857 33.776 81.4617 35.048 80.6137 35.944C79.7657 36.84 78.4457 37.288 76.6537 37.288C74.8617 37.288 73.5417 36.84 72.6937 35.944C71.8457 35.048 71.4217 33.776 71.4217 32.128V26.152C71.4217 24.504 71.8457 23.232 72.6937 22.336C73.5417 21.44 74.8617 20.992 76.6537 20.992ZM76.6537 22.792C75.5977 22.792 74.7977 23.056 74.2537 23.584C73.7257 24.112 73.4617 24.888 73.4617 25.912V32.344C73.4617 33.368 73.7257 34.152 74.2537 34.696C74.7977 35.224 75.5977 35.488 76.6537 35.488C77.7097 35.488 78.5017 35.224 79.0297 34.696C79.5737 34.152 79.8457 33.368 79.8457 32.344V25.936C79.8457 24.912 79.5737 24.136 79.0297 23.608C78.5017 23.064 77.7097 22.792 76.6537 22.792ZM105.85 21.28L102.226 37H99.4903L96.2743 23.608L93.0823 37H90.3463L86.6983 21.28H88.8583L91.7863 34.768L94.8823 21.28H97.6663L100.786 34.768L103.69 21.28H105.85ZM118.322 37L113.138 23.728V37H111.122V21.28H114.386L119.474 34.552V21.28H121.49V37H118.322ZM130.011 21.28V35.2H136.251V37H127.971V21.28H130.011ZM146.041 20.992C147.833 20.992 149.153 21.44 150.001 22.336C150.849 23.232 151.273 24.504 151.273 26.152V32.128C151.273 33.776 150.849 35.048 150.001 35.944C149.153 36.84 147.833 37.288 146.041 37.288C144.249 37.288 142.929 36.84 142.081 35.944C141.233 35.048 140.809 33.776 140.809 32.128V26.152C140.809 24.504 141.233 23.232 142.081 22.336C142.929 21.44 144.249 20.992 146.041 20.992ZM146.041 22.792C144.985 22.792 144.185 23.056 143.641 23.584C143.113 24.112 142.849 24.888 142.849 25.912V32.344C142.849 33.368 143.113 34.152 143.641 34.696C144.185 35.224 144.985 35.488 146.041 35.488C147.097 35.488 147.889 35.224 148.417 34.696C148.961 34.152 149.233 33.368 149.233 32.344V25.936C149.233 24.912 148.961 24.136 148.417 23.608C147.889 23.064 147.097 22.792 146.041 22.792ZM163 21.28L167.824 37H165.616L164.584 33.352H158.8L157.768 37H155.68L160.48 21.28H163ZM161.704 23.152L159.304 31.528H164.08L161.704 23.152ZM177.214 20.992C179.118 20.992 180.582 21.536 181.606 22.624C182.646 23.696 183.166 25.248 183.166 27.28V31.216C183.166 33.168 182.646 34.672 181.606 35.728C180.582 36.768 179.078 37.288 177.094 37.288C175.734 37.288 174.31 37.24 172.822 37.144V21.088C174.262 21.024 175.726 20.992 177.214 20.992ZM177.094 22.72C176.598 22.72 175.854 22.736 174.862 22.768V35.392C175.806 35.488 176.55 35.536 177.094 35.536C178.326 35.536 179.302 35.184 180.022 34.48C180.758 33.76 181.126 32.728 181.126 31.384V27.136C181.126 25.68 180.774 24.584 180.07 23.848C179.366 23.096 178.374 22.72 177.094 22.72ZM201.597 20.992C202.221 20.992 202.893 21.056 203.613 21.184C204.349 21.296 204.781 21.36 204.909 21.376L204.861 23.176C203.453 22.92 202.365 22.792 201.597 22.792C200.509 22.792 199.725 23.016 199.245 23.464C198.765 23.912 198.525 24.656 198.525 25.696V32.56C198.525 33.6 198.757 34.344 199.221 34.792C199.701 35.224 200.493 35.44 201.597 35.44C202.365 35.44 203.453 35.312 204.861 35.056L204.909 36.904C204.781 36.92 204.349 36.984 203.613 37.096C202.893 37.224 202.221 37.288 201.597 37.288C199.757 37.288 198.445 36.896 197.661 36.112C196.877 35.328 196.485 34.104 196.485 32.44V25.84C196.485 24.176 196.877 22.952 197.661 22.168C198.445 21.384 199.757 20.992 201.597 20.992ZM221.528 21.28L216.8 37H214.112L209.528 21.28H211.688L215.456 35.032L219.368 21.28H221.528Z" fill="white"/>
<path d="M63.7348 22.624L63.0066 23.3094L63.0118 23.3149L63.017 23.3203L63.7348 22.624ZM63.7348 35.728L63.0223 35.0263L63.0222 35.0264L63.7348 35.728ZM54.9508 37.144H53.9508V38.0816L54.8864 38.1419L54.9508 37.144ZM54.9508 21.088L54.9064 20.089L53.9508 20.1315V21.088H54.9508ZM56.9908 22.768L56.9585 21.7685L55.9908 21.7997V22.768H56.9908ZM56.9908 35.392H55.9908V36.2955L56.8896 36.3869L56.9908 35.392ZM62.1508 34.48L62.8499 35.195L62.8501 35.1948L62.1508 34.48ZM62.1988 23.848L61.4687 24.5315L61.4761 24.5392L62.1988 23.848ZM59.3428 21.992C61.0512 21.992 62.2202 22.4739 63.0066 23.3094L64.463 21.9386C63.2013 20.5981 61.4424 19.992 59.3428 19.992V21.992ZM63.017 23.3203C63.8188 24.1468 64.2948 25.4123 64.2948 27.28H66.2948C66.2948 25.0837 65.7307 23.2452 64.4525 21.9277L63.017 23.3203ZM64.2948 27.28V31.216H66.2948V27.28H64.2948ZM64.2948 31.216C64.2948 32.9916 63.8253 34.2109 63.0223 35.0263L64.4473 36.4297C65.7242 35.1331 66.2948 33.3444 66.2948 31.216H64.2948ZM63.0222 35.0264C62.2458 35.8149 61.0379 36.288 59.2228 36.288V38.288C61.3757 38.288 63.1757 37.7211 64.4473 36.4296L63.0222 35.0264ZM59.2228 36.288C57.8862 36.288 56.4837 36.2408 55.0152 36.1461L54.8864 38.1419C56.3938 38.2392 57.8394 38.288 59.2228 38.288V36.288ZM55.9508 37.144V21.088H53.9508V37.144H55.9508ZM54.9952 22.087C56.4199 22.0237 57.8691 21.992 59.3428 21.992V19.992C57.8405 19.992 56.3616 20.0243 54.9064 20.089L54.9952 22.087ZM59.2228 21.72C58.7101 21.72 57.9529 21.7364 56.9585 21.7685L57.023 23.7675C58.0126 23.7356 58.7435 23.72 59.2228 23.72V21.72ZM55.9908 22.768V35.392H57.9908V22.768H55.9908ZM56.8896 36.3869C57.8465 36.4842 58.6291 36.536 59.2228 36.536V34.536C58.7284 34.536 58.0231 34.4918 57.092 34.3971L56.8896 36.3869ZM59.2228 36.536C60.6542 36.536 61.903 36.1208 62.8499 35.195L61.4517 33.765C60.9585 34.2472 60.2554 34.536 59.2228 34.536V36.536ZM62.8501 35.1948C63.8321 34.2342 64.2548 32.9112 64.2548 31.384H62.2548C62.2548 32.5448 61.9415 33.2858 61.4515 33.7652L62.8501 35.1948ZM64.2548 31.384V27.136H62.2548V31.384H64.2548ZM64.2548 27.136C64.2548 25.5331 63.8675 24.1459 62.9214 23.1568L61.4761 24.5392C61.9381 25.0221 62.2548 25.8269 62.2548 27.136H64.2548ZM62.9288 23.1646C61.9917 22.1636 60.7077 21.72 59.2228 21.72V23.72C60.2979 23.72 60.9979 24.0284 61.4688 24.5314L62.9288 23.1646ZM80.6137 22.336L79.8874 23.0234V23.0234L80.6137 22.336ZM80.6137 35.944L79.8874 35.2566L80.6137 35.944ZM72.6937 35.944L71.9674 36.6314L72.6937 35.944ZM72.6937 22.336L73.42 23.0234V23.0234L72.6937 22.336ZM74.2537 23.584L73.5572 22.8664L73.5519 22.8716L73.5466 22.8769L74.2537 23.584ZM74.2537 34.696L73.5361 35.3925L73.5465 35.4032L73.5572 35.4136L74.2537 34.696ZM79.0297 34.696L79.7368 35.4031L79.0297 34.696ZM79.0297 23.608L78.3121 24.3045L78.3225 24.3152L78.3332 24.3256L79.0297 23.608ZM76.6537 21.992C78.2965 21.992 79.3 22.4027 79.8874 23.0234L81.34 21.6486C80.2314 20.4773 78.595 19.992 76.6537 19.992V21.992ZM79.8874 23.0234C80.5073 23.6784 80.8857 24.6718 80.8857 26.152H82.8857C82.8857 24.3362 82.4161 22.7856 81.34 21.6486L79.8874 23.0234ZM80.8857 26.152V32.128H82.8857V26.152H80.8857ZM80.8857 32.128C80.8857 33.6082 80.5073 34.6016 79.8874 35.2566L81.34 36.6314C82.4161 35.4944 82.8857 33.9438 82.8857 32.128H80.8857ZM79.8874 35.2566C79.3 35.8773 78.2965 36.288 76.6537 36.288V38.288C78.595 38.288 80.2314 37.8027 81.34 36.6314L79.8874 35.2566ZM76.6537 36.288C75.011 36.288 74.0074 35.8773 73.42 35.2566L71.9674 36.6314C73.076 37.8027 74.7125 38.288 76.6537 38.288V36.288ZM73.42 35.2566C72.8001 34.6016 72.4217 33.6082 72.4217 32.128H70.4217C70.4217 33.9438 70.8913 35.4944 71.9674 36.6314L73.42 35.2566ZM72.4217 32.128V26.152H70.4217V32.128H72.4217ZM72.4217 26.152C72.4217 24.6718 72.8001 23.6784 73.42 23.0234L71.9674 21.6486C70.8913 22.7856 70.4217 24.3362 70.4217 26.152H72.4217ZM73.42 23.0234C74.0074 22.4027 75.011 21.992 76.6537 21.992V19.992C74.7125 19.992 73.076 20.4773 71.9674 21.6486L73.42 23.0234ZM76.6537 21.792C75.4411 21.792 74.3508 22.0962 73.5572 22.8664L74.9502 24.3016C75.2446 24.0158 75.7543 23.792 76.6537 23.792V21.792ZM73.5466 22.8769C72.7702 23.6533 72.4617 24.7235 72.4617 25.912H74.4617C74.4617 25.0525 74.6812 24.5707 74.9608 24.2911L73.5466 22.8769ZM72.4617 25.912V32.344H74.4617V25.912H72.4617ZM72.4617 32.344C72.4617 33.5347 72.771 34.6042 73.5361 35.3925L74.9713 33.9995C74.6804 33.6998 74.4617 33.2013 74.4617 32.344H72.4617ZM73.5572 35.4136C74.3508 36.1838 75.4411 36.488 76.6537 36.488V34.488C75.7543 34.488 75.2446 34.2642 74.9502 33.9784L73.5572 35.4136ZM76.6537 36.488C77.8639 36.488 78.9551 36.1848 79.7368 35.4031L78.3226 33.9889C78.0483 34.2632 77.5556 34.488 76.6537 34.488V36.488ZM79.7368 35.4031C80.524 34.6159 80.8457 33.5425 80.8457 32.344H78.8457C78.8457 33.1935 78.6234 33.6881 78.3226 33.9889L79.7368 35.4031ZM80.8457 32.344V25.936H78.8457V32.344H80.8457ZM80.8457 25.936C80.8457 24.7396 80.5248 23.6655 79.7262 22.8904L78.3332 24.3256C78.6227 24.6065 78.8457 25.0844 78.8457 25.936H80.8457ZM79.7473 22.9115C78.9668 22.1074 77.8716 21.792 76.6537 21.792V23.792C77.5479 23.792 78.0366 24.0206 78.3121 24.3045L79.7473 22.9115ZM105.85 21.28L106.825 21.5046L107.107 20.28H105.85V21.28ZM102.226 37V38H103.022L103.201 37.2246L102.226 37ZM99.4903 37L98.5179 37.2335L98.702 38H99.4903V37ZM96.2743 23.608L97.2466 23.3745L95.3015 23.3761L96.2743 23.608ZM93.0823 37V38H93.8719L94.055 37.2319L93.0823 37ZM90.3463 37L89.3722 37.2261L89.5518 38H90.3463V37ZM86.6983 21.28V20.28H85.4397L85.7242 21.5061L86.6983 21.28ZM88.8583 21.28L89.8355 21.0679L89.6645 20.28H88.8583V21.28ZM91.7863 34.768L90.809 34.9801L92.7609 34.9917L91.7863 34.768ZM94.8823 21.28V20.28H94.0858L93.9076 21.0563L94.8823 21.28ZM97.6663 21.28L98.6406 21.0546L98.4614 20.28H97.6663V21.28ZM100.786 34.768L99.812 34.9934L101.764 34.9785L100.786 34.768ZM103.69 21.28V20.28H102.883L102.713 21.0695L103.69 21.28ZM104.876 21.0554L101.252 36.7754L103.201 37.2246L106.825 21.5046L104.876 21.0554ZM102.226 36H99.4903V38H102.226V36ZM100.463 36.7665L97.2466 23.3745L95.3019 23.8415L98.5179 37.2335L100.463 36.7665ZM95.3015 23.3761L92.1095 36.7681L94.055 37.2319L97.247 23.8399L95.3015 23.3761ZM93.0823 36H90.3463V38H93.0823V36ZM91.3204 36.7739L87.6724 21.0539L85.7242 21.5061L89.3722 37.2261L91.3204 36.7739ZM86.6983 22.28H88.8583V20.28H86.6983V22.28ZM87.881 21.4921L90.809 34.9801L92.7635 34.5559L89.8355 21.0679L87.881 21.4921ZM92.7609 34.9917L95.8569 21.5037L93.9076 21.0563L90.8116 34.5443L92.7609 34.9917ZM94.8823 22.28H97.6663V20.28H94.8823V22.28ZM96.692 21.5054L99.812 34.9934L101.761 34.5426L98.6406 21.0546L96.692 21.5054ZM101.764 34.9785L104.668 21.4905L102.713 21.0695L99.8087 34.5575L101.764 34.9785ZM103.69 22.28H105.85V20.28H103.69V22.28ZM118.322 37L117.391 37.3638L117.639 38H118.322V37ZM113.138 23.728L114.069 23.3642L112.138 23.728H113.138ZM113.138 37V38H114.138V37H113.138ZM111.122 37H110.122V38H111.122V37ZM111.122 21.28V20.28H110.122V21.28H111.122ZM114.386 21.28L115.32 20.922L115.074 20.28H114.386V21.28ZM119.474 34.552L118.54 34.91L120.474 34.552H119.474ZM119.474 21.28V20.28H118.474V21.28H119.474ZM121.49 21.28H122.49V20.28H121.49V21.28ZM121.49 37V38H122.49V37H121.49ZM119.253 36.6362L114.069 23.3642L112.207 24.0918L117.391 37.3638L119.253 36.6362ZM112.138 23.728V37H114.138V23.728H112.138ZM113.138 36H111.122V38H113.138V36ZM112.122 37V21.28H110.122V37H112.122ZM111.122 22.28H114.386V20.28H111.122V22.28ZM113.452 21.638L118.54 34.91L120.408 34.194L115.32 20.922L113.452 21.638ZM120.474 34.552V21.28H118.474V34.552H120.474ZM119.474 22.28H121.49V20.28H119.474V22.28ZM120.49 21.28V37H122.49V21.28H120.49ZM121.49 36H118.322V38H121.49V36ZM130.011 21.28H131.011V20.28H130.011V21.28ZM130.011 35.2H129.011V36.2H130.011V35.2ZM136.251 35.2H137.251V34.2H136.251V35.2ZM136.251 37V38H137.251V37H136.251ZM127.971 37H126.971V38H127.971V37ZM127.971 21.28V20.28H126.971V21.28H127.971ZM129.011 21.28V35.2H131.011V21.28H129.011ZM130.011 36.2H136.251V34.2H130.011V36.2ZM135.251 35.2V37H137.251V35.2H135.251ZM136.251 36H127.971V38H136.251V36ZM128.971 37V21.28H126.971V37H128.971ZM127.971 22.28H130.011V20.28H127.971V22.28ZM150.001 22.336L149.275 23.0234V23.0234L150.001 22.336ZM150.001 35.944L149.275 35.2566L150.001 35.944ZM142.081 35.944L141.355 36.6314L142.081 35.944ZM142.081 22.336L142.807 23.0234V23.0234L142.081 22.336ZM143.641 23.584L142.944 22.8664L142.939 22.8716L142.934 22.8769L143.641 23.584ZM143.641 34.696L142.923 35.3925L142.934 35.4032L142.944 35.4136L143.641 34.696ZM148.417 34.696L149.124 35.4031L148.417 34.696ZM148.417 23.608L147.699 24.3045L147.71 24.3152L147.72 24.3256L148.417 23.608ZM146.041 21.992C147.684 21.992 148.687 22.4027 149.275 23.0234L150.727 21.6486C149.619 20.4773 147.982 19.992 146.041 19.992V21.992ZM149.275 23.0234C149.895 23.6784 150.273 24.6718 150.273 26.152H152.273C152.273 24.3362 151.803 22.7856 150.727 21.6486L149.275 23.0234ZM150.273 26.152V32.128H152.273V26.152H150.273ZM150.273 32.128C150.273 33.6082 149.895 34.6016 149.275 35.2566L150.727 36.6314C151.803 35.4944 152.273 33.9438 152.273 32.128H150.273ZM149.275 35.2566C148.687 35.8773 147.684 36.288 146.041 36.288V38.288C147.982 38.288 149.619 37.8027 150.727 36.6314L149.275 35.2566ZM146.041 36.288C144.398 36.288 143.395 35.8773 142.807 35.2566L141.355 36.6314C142.463 37.8027 144.1 38.288 146.041 38.288V36.288ZM142.807 35.2566C142.187 34.6016 141.809 33.6082 141.809 32.128H139.809C139.809 33.9438 140.279 35.4944 141.355 36.6314L142.807 35.2566ZM141.809 32.128V26.152H139.809V32.128H141.809ZM141.809 26.152C141.809 24.6718 142.187 23.6784 142.807 23.0234L141.355 21.6486C140.279 22.7856 139.809 24.3362 139.809 26.152H141.809ZM142.807 23.0234C143.395 22.4027 144.398 21.992 146.041 21.992V19.992C144.1 19.992 142.463 20.4773 141.355 21.6486L142.807 23.0234ZM146.041 21.792C144.828 21.792 143.738 22.0962 142.944 22.8664L144.337 24.3016C144.632 24.0158 145.142 23.792 146.041 23.792V21.792ZM142.934 22.8769C142.157 23.6533 141.849 24.7235 141.849 25.912H143.849C143.849 25.0525 144.068 24.5707 144.348 24.2911L142.934 22.8769ZM141.849 25.912V32.344H143.849V25.912H141.849ZM141.849 32.344C141.849 33.5347 142.158 34.6042 142.923 35.3925L144.358 33.9995C144.068 33.6998 143.849 33.2013 143.849 32.344H141.849ZM142.944 35.4136C143.738 36.1838 144.828 36.488 146.041 36.488V34.488C145.142 34.488 144.632 34.2642 144.337 33.9784L142.944 35.4136ZM146.041 36.488C147.251 36.488 148.342 36.1848 149.124 35.4031L147.71 33.9889C147.435 34.2632 146.943 34.488 146.041 34.488V36.488ZM149.124 35.4031C149.911 34.6159 150.233 33.5425 150.233 32.344H148.233C148.233 33.1935 148.011 33.6881 147.71 33.9889L149.124 35.4031ZM150.233 32.344V25.936H148.233V32.344H150.233ZM150.233 25.936C150.233 24.7396 149.912 23.6655 149.113 22.8904L147.72 24.3256C148.01 24.6065 148.233 25.0844 148.233 25.936H150.233ZM149.134 22.9115C148.354 22.1074 147.259 21.792 146.041 21.792V23.792C146.935 23.792 147.424 24.0206 147.699 24.3045L149.134 22.9115ZM163 21.28L163.956 20.9866L163.739 20.28H163V21.28ZM167.824 37V38H169.177L168.78 36.7066L167.824 37ZM165.616 37L164.654 37.2722L164.86 38H165.616V37ZM164.584 33.352L165.547 33.0798L165.341 32.352H164.584V33.352ZM158.8 33.352V32.352H158.044L157.838 33.0798L158.8 33.352ZM157.768 37V38H158.525L158.731 37.2722L157.768 37ZM155.68 37L154.724 36.708L154.329 38H155.68V37ZM160.48 21.28V20.28H159.74L159.524 20.988L160.48 21.28ZM161.704 23.152L162.666 22.8791L161.709 19.5047L160.743 22.8766L161.704 23.152ZM159.304 31.528L158.343 31.2526L157.978 32.528H159.304V31.528ZM164.08 31.528V32.528H165.403L165.042 31.2551L164.08 31.528ZM162.044 21.5734L166.868 37.2934L168.78 36.7066L163.956 20.9866L162.044 21.5734ZM167.824 36H165.616V38H167.824V36ZM166.579 36.7278L165.547 33.0798L163.622 33.6242L164.654 37.2722L166.579 36.7278ZM164.584 32.352H158.8V34.352H164.584V32.352ZM157.838 33.0798L156.806 36.7278L158.731 37.2722L159.763 33.6242L157.838 33.0798ZM157.768 36H155.68V38H157.768V36ZM156.637 37.292L161.437 21.572L159.524 20.988L154.724 36.708L156.637 37.292ZM160.48 22.28H163V20.28H160.48V22.28ZM160.743 22.8766L158.343 31.2526L160.266 31.8034L162.666 23.4274L160.743 22.8766ZM159.304 32.528H164.08V30.528H159.304V32.528ZM165.042 31.2551L162.666 22.8791L160.742 23.4249L163.118 31.8009L165.042 31.2551ZM181.606 22.624L180.878 23.3094L180.883 23.3149L180.888 23.3203L181.606 22.624ZM181.606 35.728L180.893 35.0263L180.893 35.0264L181.606 35.728ZM172.822 37.144H171.822V38.0816L172.757 38.1419L172.822 37.144ZM172.822 21.088L172.777 20.089L171.822 20.1315V21.088H172.822ZM174.862 22.768L174.829 21.7685L173.862 21.7997V22.768H174.862ZM174.862 35.392H173.862V36.2955L174.761 36.3869L174.862 35.392ZM180.022 34.48L180.721 35.195L180.721 35.1948L180.022 34.48ZM180.07 23.848L179.34 24.5315L179.347 24.5392L180.07 23.848ZM177.214 21.992C178.922 21.992 180.091 22.4739 180.878 23.3094L182.334 21.9386C181.072 20.5981 179.313 19.992 177.214 19.992V21.992ZM180.888 23.3203C181.69 24.1468 182.166 25.4123 182.166 27.28H184.166C184.166 25.0837 183.602 23.2452 182.323 21.9277L180.888 23.3203ZM182.166 27.28V31.216H184.166V27.28H182.166ZM182.166 31.216C182.166 32.9916 181.696 34.2109 180.893 35.0263L182.318 36.4297C183.595 35.1331 184.166 33.3444 184.166 31.216H182.166ZM180.893 35.0264C180.117 35.8149 178.909 36.288 177.094 36.288V38.288C179.247 38.288 181.047 37.7211 182.318 36.4296L180.893 35.0264ZM177.094 36.288C175.757 36.288 174.355 36.2408 172.886 36.1461L172.757 38.1419C174.265 38.2392 175.71 38.288 177.094 38.288V36.288ZM173.822 37.144V21.088H171.822V37.144H173.822ZM172.866 22.087C174.291 22.0237 175.74 21.992 177.214 21.992V19.992C175.711 19.992 174.233 20.0243 172.777 20.089L172.866 22.087ZM177.094 21.72C176.581 21.72 175.824 21.7364 174.829 21.7685L174.894 23.7675C175.884 23.7356 176.614 23.72 177.094 23.72V21.72ZM173.862 22.768V35.392H175.862V22.768H173.862ZM174.761 36.3869C175.717 36.4842 176.5 36.536 177.094 36.536V34.536C176.599 34.536 175.894 34.4918 174.963 34.3971L174.761 36.3869ZM177.094 36.536C178.525 36.536 179.774 36.1208 180.721 35.195L179.323 33.765C178.829 34.2472 178.126 34.536 177.094 34.536V36.536ZM180.721 35.1948C181.703 34.2342 182.126 32.9112 182.126 31.384H180.126C180.126 32.5448 179.812 33.2858 179.322 33.7652L180.721 35.1948ZM182.126 31.384V27.136H180.126V31.384H182.126ZM182.126 27.136C182.126 25.5331 181.738 24.1459 180.792 23.1568L179.347 24.5392C179.809 25.0221 180.126 25.8269 180.126 27.136H182.126ZM180.8 23.1646C179.863 22.1636 178.579 21.72 177.094 21.72V23.72C178.169 23.72 178.869 24.0284 179.34 24.5314L180.8 23.1646ZM203.613 21.184L203.438 22.1686L203.45 22.1707L203.463 22.1726L203.613 21.184ZM204.909 21.376L205.909 21.4027L205.933 20.4962L205.033 20.3837L204.909 21.376ZM204.861 23.176L204.682 24.1599L205.83 24.3685L205.861 23.2027L204.861 23.176ZM199.221 34.792L198.527 35.5114L198.539 35.5236L198.552 35.5353L199.221 34.792ZM204.861 35.056L205.861 35.03L205.831 33.8634L204.682 34.0721L204.861 35.056ZM204.909 36.904L205.033 37.8963L205.932 37.7839L205.909 36.878L204.909 36.904ZM203.613 37.096L203.463 36.1074L203.45 36.1093L203.438 36.1114L203.613 37.096ZM197.661 36.112L196.954 36.8191L197.661 36.112ZM197.661 22.168L196.954 21.4609L197.661 22.168ZM201.597 21.992C202.153 21.992 202.766 22.0491 203.438 22.1686L203.788 20.1994C203.02 20.0629 202.289 19.992 201.597 19.992V21.992ZM203.463 22.1726C204.191 22.2834 204.64 22.3502 204.785 22.3683L205.033 20.3837C204.922 20.3698 204.508 20.3086 203.764 20.1954L203.463 22.1726ZM203.91 21.3493L203.861 23.1493L205.861 23.2027L205.909 21.4027L203.91 21.3493ZM205.04 22.1921C203.614 21.9329 202.456 21.792 201.597 21.792V23.792C202.274 23.792 203.292 23.9071 204.682 24.1599L205.04 22.1921ZM201.597 21.792C200.412 21.792 199.317 22.029 198.563 22.7329L199.927 24.1951C200.133 24.003 200.606 23.792 201.597 23.792V21.792ZM198.563 22.7329C197.788 23.4561 197.525 24.5369 197.525 25.696H199.525C199.525 24.7751 199.742 24.3679 199.927 24.1951L198.563 22.7329ZM197.525 25.696V32.56H199.525V25.696H197.525ZM197.525 32.56C197.525 33.7111 197.776 34.787 198.527 35.5114L199.916 34.0726C199.738 33.901 199.525 33.4889 199.525 32.56H197.525ZM198.552 35.5353C199.308 36.2156 200.408 36.44 201.597 36.44V34.44C200.579 34.44 200.094 34.2324 199.89 34.0487L198.552 35.5353ZM201.597 36.44C202.456 36.44 203.614 36.2991 205.04 36.0399L204.682 34.0721C203.292 34.3249 202.274 34.44 201.597 34.44V36.44ZM203.861 35.082L203.909 36.93L205.909 36.878L205.861 35.03L203.861 35.082ZM204.785 35.9117C204.64 35.9298 204.191 35.9966 203.463 36.1074L203.764 38.0846C204.508 37.9714 204.922 37.9102 205.033 37.8963L204.785 35.9117ZM203.438 36.1114C202.766 36.2309 202.153 36.288 201.597 36.288V38.288C202.289 38.288 203.02 38.2171 203.788 38.0806L203.438 36.1114ZM201.597 36.288C199.857 36.288 198.873 35.91 198.368 35.4049L196.954 36.8191C198.017 37.882 199.658 38.288 201.597 38.288V36.288ZM198.368 35.4049C197.848 34.8844 197.485 33.97 197.485 32.44H195.485C195.485 34.238 195.907 35.7716 196.954 36.8191L198.368 35.4049ZM197.485 32.44V25.84H195.485V32.44H197.485ZM197.485 25.84C197.485 24.31 197.848 23.3956 198.368 22.8751L196.954 21.4609C195.907 22.5084 195.485 24.042 195.485 25.84H197.485ZM198.368 22.8751C198.873 22.37 199.857 21.992 201.597 21.992V19.992C199.658 19.992 198.017 20.398 196.954 21.4609L198.368 22.8751ZM221.528 21.28L222.486 21.568L222.873 20.28H221.528V21.28ZM216.8 37V38H217.544L217.758 37.288L216.8 37ZM214.112 37L213.152 37.2799L213.362 38H214.112V37ZM209.528 21.28V20.28H208.195L208.568 21.5599L209.528 21.28ZM211.688 21.28L212.653 21.0157L212.451 20.28H211.688V21.28ZM215.456 35.032L214.492 35.2963L215.438 38.7503L216.418 35.3056L215.456 35.032ZM219.368 21.28V20.28H218.613L218.407 21.0064L219.368 21.28ZM220.571 20.992L215.843 36.712L217.758 37.288L222.486 21.568L220.571 20.992ZM216.8 36H214.112V38H216.8V36ZM215.072 36.7201L210.488 21.0001L208.568 21.5599L213.152 37.2799L215.072 36.7201ZM209.528 22.28H211.688V20.28H209.528V22.28ZM210.724 21.5443L214.492 35.2963L216.421 34.7677L212.653 21.0157L210.724 21.5443ZM216.418 35.3056L220.33 21.5536L218.407 21.0064L214.495 34.7584L216.418 35.3056ZM219.368 22.28H221.528V20.28H219.368V22.28Z" fill="white"/>
<defs>
<filter id="filter0_f" x="12" y="0" width="265" height="65" filterUnits="userSpaceOnUse" color-interpolation-filters="sRGB">
<feFlood flood-opacity="0" result="BackgroundImageFix"/>
<feBlend mode="normal" in="SourceGraphic" in2="BackgroundImageFix" result="shape"/>
<feGaussianBlur stdDeviation="2" result="effect1_foregroundBlur"/>
</filter>
<linearGradient id="paint0_linear" x1="156.697" y1="61" x2="156.697" y2="4" gradientUnits="userSpaceOnUse">
<stop stop-color="#2168FD"/>
<stop offset="1" stop-color="white" stop-opacity="0"/>
</linearGradient>
</defs>
</svg>
