<svg width="60" height="65" viewBox="0 0 60 65" fill="none" xmlns="http://www.w3.org/2000/svg">
<path fill-rule="evenodd" clip-rule="evenodd" d="M30 0.10083C46.5686 0.10083 60 14.518 60 32.3027C60 50.0873 46.5686 64.5045 30 64.5045C13.4314 64.5045 0 50.0873 0 32.3027C0 14.518 13.4314 0.10083 30 0.10083ZM33.2524 20.6654H38.6731V13.6828H33.2524C29.0685 13.6828 25.664 17.337 25.664 21.8281V25.3195H21.3269V32.3027H25.6629V50.9226H32.1685V32.3027H37.5891L38.6731 25.3196H32.1685V21.8283C32.1685 21.1973 32.6647 20.6654 33.2524 20.6654Z" fill="white"/>
<path fill-rule="evenodd" clip-rule="evenodd" d="M30 0.10083C46.5686 0.10083 60 14.518 60 32.3027C60 50.0873 46.5686 64.5045 30 64.5045C13.4314 64.5045 0 50.0873 0 32.3027C0 14.518 13.4314 0.10083 30 0.10083ZM33.2524 20.6654H38.6731V13.6828H33.2524C29.0685 13.6828 25.664 17.337 25.664 21.8281V25.3195H21.3269V32.3027H25.6629V50.9226H32.1685V32.3027H37.5891L38.6731 25.3196H32.1685V21.8283C32.1685 21.1973 32.6647 20.6654 33.2524 20.6654Z" fill="url(#paint0_linear)"/>
<defs>
<linearGradient id="paint0_linear" x1="30" y1="0.10083" x2="30" y2="64.5045" gradientUnits="userSpaceOnUse">
<stop stop-color="#5C417E"/>
<stop offset="1" stop-color="white" stop-opacity="0"/>
</linearGradient>
</defs>
</svg>
