<svg width="330" height="346" viewBox="0 0 330 346" fill="none" xmlns="http://www.w3.org/2000/svg">
<path d="M90.6688 105.95C90.6688 109.03 88.2874 111.527 85.3503 111.527C82.4132 111.527 80.0318 109.03 80.0318 105.95C80.0318 102.871 82.4132 100.374 85.3503 100.374C88.2874 100.374 90.6688 102.871 90.6688 105.95Z" fill="#A495B7"/>
<path d="M143.853 105.95C143.853 109.03 141.472 111.527 138.535 111.527C135.598 111.527 133.216 109.03 133.216 105.95C133.216 102.871 135.598 100.374 138.535 100.374C141.472 100.374 143.853 102.871 143.853 105.95Z" fill="#A495B7"/>
<path d="M111.943 150.561C106.076 150.561 101.306 145.559 101.306 139.408H90.6688C90.6688 151.71 100.21 161.714 111.943 161.714C123.675 161.714 133.216 151.71 133.216 139.408H122.58C122.58 145.559 117.809 150.561 111.943 150.561Z" fill="#A495B7"/>
<path d="M214.424 219.244L189.39 245.492L214.424 271.74L221.945 263.855L204.431 245.492L221.945 227.129L214.424 219.244Z" fill="#A495B7"/>
<path d="M246.335 227.129L263.849 245.492L246.335 263.855L253.856 271.74L278.89 245.492L253.856 219.244L246.335 227.129Z" fill="#A495B7"/>
<path d="M223.578 278.054L234.197 211.135L244.689 212.965L234.072 279.884L223.578 278.054Z" fill="#A495B7"/>
<path d="M234.14 178.576C198.947 178.576 170.318 208.595 170.318 245.492C170.318 282.391 198.947 312.408 234.14 312.408C269.333 312.408 297.962 282.391 297.962 245.492C297.962 208.595 269.333 178.576 234.14 178.576ZM234.14 301.255C204.813 301.255 180.955 276.241 180.955 245.492C180.955 214.743 204.813 189.729 234.14 189.729C263.467 189.729 287.325 214.743 287.325 245.492C287.325 276.241 263.462 301.255 234.14 301.255Z" fill="#A495B7"/>
<path d="M317.103 225.841C314.971 215.849 311.268 206.458 306.072 197.848L312.161 185.157L291.685 163.688L279.581 170.073C271.369 164.619 262.413 160.744 252.882 158.506L248.618 144.985H219.657L215.398 158.506C210.872 159.573 206.488 161.027 202.24 162.824C195.469 153.344 191.72 141.761 191.72 129.884V83.6449C191.72 37.5231 155.932 0 111.943 0C67.9536 0 32.1657 37.5231 32.1657 83.6449V134.774C32.1657 152.881 22.97 169.923 8.15207 179.24L3.10109 182.418L6.63808 187.365C7.15226 188.084 16.2207 200.38 33.9004 207.277L25.7098 210.144C10.4893 215.459 0.254883 230.342 0.254883 247.166V301.122H158.378L156.124 305.829L176.6 327.296L188.705 320.911C196.916 326.365 205.873 330.242 215.403 332.478L219.662 345.999H248.623L252.887 332.478C262.418 330.242 271.374 326.36 279.586 320.911L291.69 327.296L312.167 305.829L306.077 293.136C311.279 284.526 314.977 275.135 317.109 265.142L330 260.677V230.312L317.103 225.841ZM192.496 167.785C191.226 168.54 189.938 169.253 188.699 170.073L176.595 163.688L156.119 185.157L162.042 197.508L143.853 191.15V179.597C155.607 171.54 164.405 159.17 168.259 144.65C173.328 144.015 177.925 141.919 181.711 138.717C183.061 149.15 186.731 159.138 192.496 167.785ZM138.28 230.312V238.968L119.803 222.696L139.971 201.551L157.209 207.574C154.597 213.401 152.532 219.484 151.177 225.841L138.28 230.312ZM111.943 215.168L90.6688 192.863V185.334C97.2753 188.051 104.432 189.595 111.943 189.595C119.453 189.595 126.613 188.051 133.216 185.334V192.863L111.943 215.168ZM104.077 223.41L86.3138 242.034L65.928 207.835L83.909 201.551L104.422 223.053L104.077 223.41ZM111.943 178.443C85.5477 178.443 64.0764 155.93 64.0764 128.256V89.2213H159.809V128.256C159.809 155.93 138.338 178.443 111.943 178.443ZM170.222 132.879C170.334 131.346 170.446 129.816 170.446 128.256V101.4C176.621 103.709 181.083 109.844 181.083 117.103C181.083 124.446 176.515 130.635 170.222 132.879ZM111.943 11.1527C150.065 11.1527 181.083 43.674 181.083 83.6449V94.9419C177.977 92.4777 174.398 90.6317 170.446 89.7903V78.0686H53.4395V89.7849C49.487 90.6317 45.9085 92.4723 42.8026 94.9364V83.6449C42.8026 43.674 73.82 11.1527 111.943 11.1527ZM53.4395 101.4V128.256C53.4395 129.816 53.5512 131.346 53.6628 132.879C47.3705 130.635 42.8026 124.446 42.8026 117.103C42.8026 109.844 47.2641 103.709 53.4395 101.4ZM19.0019 184.983C32.7396 174.032 41.3561 157.169 42.5585 139.057C46.2695 142.074 50.7283 144.042 55.6261 144.655C59.4773 159.181 68.2782 171.546 80.0318 179.602V191.155L53.4759 200.44C36.0065 198.924 24.523 190.36 19.0019 184.983ZM10.8918 247.166C10.8918 235.148 18.1995 224.515 29.0753 220.717L54.7847 211.734C55.0989 211.751 55.4184 211.762 55.7326 211.773L84.3817 259.836L112.252 230.614L138.28 253.538V260.682L151.177 265.148C153.054 273.943 156.22 282.234 160.474 289.975H50.383C45.5112 284.706 42.8026 277.801 42.8026 270.452C42.8026 262.951 45.5839 255.904 50.6478 250.594L53.4395 247.667V234.206H42.8026V243.055C35.9416 250.423 32.1657 260.13 32.1657 270.452C32.1657 277.417 33.9212 284.091 37.1491 289.969H10.8918V247.166ZM319.363 252.617L307.858 256.606L307.284 259.847C305.381 270.618 301.428 280.63 295.557 289.607L293.775 292.322L299.206 303.638L289.594 313.712L278.804 308.019L276.215 309.886C267.65 316.043 258.104 320.187 247.831 322.183L244.741 322.784L240.931 334.847H227.344L223.539 322.784L220.449 322.183C210.176 320.187 200.63 316.043 192.065 309.886L189.476 308.019L178.686 313.712L169.075 303.638L174.505 292.322L172.723 289.607C166.852 280.63 162.899 270.618 160.996 259.847L160.422 256.606L148.917 252.617V238.372L160.422 234.377L160.996 231.14C162.899 220.366 166.852 210.357 172.723 201.377L174.505 198.662L169.075 187.349L178.686 177.272L189.476 182.965L192.065 181.097C200.63 174.941 210.176 170.797 220.449 168.801L223.539 168.199L227.344 156.137H240.931L244.741 168.199L247.831 168.801C258.104 170.797 267.65 174.941 276.215 181.097L278.804 182.965L289.594 177.272L299.206 187.349L293.775 198.662L295.557 201.377C301.428 210.357 305.381 220.366 307.284 231.14L307.858 234.377L319.363 238.372V252.617Z" fill="#A495B7"/>
</svg>
