<svg width="174" height="57" viewBox="0 0 174 57" fill="none" xmlns="http://www.w3.org/2000/svg">
<g filter="url(#filter0_f)">
<rect x="4" y="4" width="166" height="49" rx="24.5" fill="white"/>
<rect x="4" y="4" width="166" height="49" rx="24.5" fill="url(#paint0_linear)" fill-opacity="0.9"/>
<rect x="14" y="14" width="146" height="29" rx="14.5" stroke="url(#paint1_linear)" stroke-width="20"/>
</g>
<path d="M2.5 25.5C2.5 12.2452 13.2452 1.5 26.5 1.5H143.5C156.755 1.5 167.5 12.2452 167.5 25.5C167.5 38.7548 156.755 49.5 143.5 49.5H26.5C13.2452 49.5 2.5 38.7548 2.5 25.5Z" fill="white"/>
<path d="M2.5 25.5C2.5 12.2452 13.2452 1.5 26.5 1.5H143.5C156.755 1.5 167.5 12.2452 167.5 25.5C167.5 38.7548 156.755 49.5 143.5 49.5H26.5C13.2452 49.5 2.5 38.7548 2.5 25.5Z" fill="url(#paint2_linear)" fill-opacity="0.9"/>
<path d="M2.5 25.5C2.5 12.2452 13.2452 1.5 26.5 1.5H143.5C156.755 1.5 167.5 12.2452 167.5 25.5C167.5 38.7548 156.755 49.5 143.5 49.5H26.5C13.2452 49.5 2.5 38.7548 2.5 25.5Z" stroke="black"/>
<path d="M39.792 17.992C40.416 17.992 41.088 18.056 41.808 18.184C42.544 18.296 42.976 18.36 43.104 18.376L43.056 20.176C41.648 19.92 40.56 19.792 39.792 19.792C38.704 19.792 37.92 20.016 37.44 20.464C36.96 20.912 36.72 21.656 36.72 22.696V29.56C36.72 30.6 36.952 31.344 37.416 31.792C37.896 32.224 38.688 32.44 39.792 32.44C40.56 32.44 41.648 32.312 43.056 32.056L43.104 33.904C42.976 33.92 42.544 33.984 41.808 34.096C41.088 34.224 40.416 34.288 39.792 34.288C37.952 34.288 36.64 33.896 35.856 33.112C35.072 32.328 34.68 31.104 34.68 29.44V22.84C34.68 21.176 35.072 19.952 35.856 19.168C36.64 18.384 37.952 17.992 39.792 17.992ZM52.8917 17.992C54.6837 17.992 56.0037 18.44 56.8517 19.336C57.6997 20.232 58.1237 21.504 58.1237 23.152V29.128C58.1237 30.776 57.6997 32.048 56.8517 32.944C56.0037 33.84 54.6837 34.288 52.8917 34.288C51.0997 34.288 49.7797 33.84 48.9317 32.944C48.0837 32.048 47.6597 30.776 47.6597 29.128V23.152C47.6597 21.504 48.0837 20.232 48.9317 19.336C49.7797 18.44 51.0997 17.992 52.8917 17.992ZM52.8917 19.792C51.8357 19.792 51.0357 20.056 50.4917 20.584C49.9637 21.112 49.6997 21.888 49.6997 22.912V29.344C49.6997 30.368 49.9637 31.152 50.4917 31.696C51.0357 32.224 51.8357 32.488 52.8917 32.488C53.9477 32.488 54.7397 32.224 55.2677 31.696C55.8117 31.152 56.0837 30.368 56.0837 29.344V22.936C56.0837 21.912 55.8117 21.136 55.2677 20.608C54.7397 20.064 53.9477 19.792 52.8917 19.792ZM70.6078 34L65.4238 20.728V34H63.4078V18.28H66.6718L71.7598 31.552V18.28H73.7758V34H70.6078ZM89.2566 18.28V20.128H84.6966V34H82.6566V20.128H78.0966V18.28H89.2566ZM97.9883 18.28L102.812 34H100.604L99.5723 30.352H93.7883L92.7563 34H90.6683L95.4683 18.28H97.9883ZM96.6923 20.152L94.2923 28.528H99.0683L96.6923 20.152ZM111.253 17.992C111.877 17.992 112.549 18.056 113.269 18.184C114.005 18.296 114.437 18.36 114.565 18.376L114.517 20.176C113.109 19.92 112.021 19.792 111.253 19.792C110.165 19.792 109.381 20.016 108.901 20.464C108.421 20.912 108.181 21.656 108.181 22.696V29.56C108.181 30.6 108.413 31.344 108.877 31.792C109.357 32.224 110.149 32.44 111.253 32.44C112.021 32.44 113.109 32.312 114.517 32.056L114.565 33.904C114.437 33.92 114.005 33.984 113.269 34.096C112.549 34.224 111.877 34.288 111.253 34.288C109.413 34.288 108.101 33.896 107.317 33.112C106.533 32.328 106.141 31.104 106.141 29.44V22.84C106.141 21.176 106.533 19.952 107.317 19.168C108.101 18.384 109.413 17.992 111.253 17.992ZM129.321 18.28V20.128H124.761V34H122.721V20.128H118.161V18.28H129.321Z" fill="black"/>
<path d="M41.808 18.184L41.633 19.1686L41.6452 19.1707L41.6576 19.1726L41.808 18.184ZM43.104 18.376L44.1036 18.4027L44.1278 17.4962L43.228 17.3837L43.104 18.376ZM43.056 20.176L42.8771 21.1599L44.0246 21.3685L44.0556 20.2027L43.056 20.176ZM37.416 31.792L36.7214 32.5114L36.734 32.5236L36.747 32.5353L37.416 31.792ZM43.056 32.056L44.0557 32.03L44.0254 30.8634L42.8771 31.0721L43.056 32.056ZM43.104 33.904L43.228 34.8963L44.1272 34.7839L44.1037 33.878L43.104 33.904ZM41.808 34.096L41.6576 33.1074L41.6452 33.1093L41.633 33.1114L41.808 34.096ZM35.856 33.112L35.1489 33.8191L35.856 33.112ZM35.856 19.168L35.1489 18.4609L35.856 19.168ZM39.792 18.992C40.3483 18.992 40.9612 19.0491 41.633 19.1686L41.983 17.1994C41.2148 17.0629 40.4837 16.992 39.792 16.992V18.992ZM41.6576 19.1726C42.3856 19.2834 42.8351 19.3502 42.98 19.3683L43.228 17.3837C43.1169 17.3698 42.7024 17.3086 41.9584 17.1954L41.6576 19.1726ZM42.1044 18.3493L42.0564 20.1493L44.0556 20.2027L44.1036 18.4027L42.1044 18.3493ZM43.2349 19.1921C41.8091 18.9329 40.6509 18.792 39.792 18.792V20.792C40.4691 20.792 41.4869 20.9071 42.8771 21.1599L43.2349 19.1921ZM39.792 18.792C38.6069 18.792 37.512 19.029 36.7577 19.7329L38.1223 21.1951C38.328 21.003 38.8011 20.792 39.792 20.792V18.792ZM36.7577 19.7329C35.9829 20.4561 35.72 21.5369 35.72 22.696H37.72C37.72 21.7751 37.9371 21.3679 38.1223 21.1951L36.7577 19.7329ZM35.72 22.696V29.56H37.72V22.696H35.72ZM35.72 29.56C35.72 30.7111 35.9711 31.787 36.7214 32.5114L38.1106 31.0726C37.9329 30.901 37.72 30.4889 37.72 29.56H35.72ZM36.747 32.5353C37.5029 33.2156 38.6024 33.44 39.792 33.44V31.44C38.7736 31.44 38.2891 31.2324 38.085 31.0487L36.747 32.5353ZM39.792 33.44C40.6509 33.44 41.8091 33.2991 43.2349 33.0399L42.8771 31.0721C41.4869 31.3249 40.4691 31.44 39.792 31.44V33.44ZM42.0563 32.082L42.1043 33.93L44.1037 33.878L44.0557 32.03L42.0563 32.082ZM42.98 32.9117C42.8351 32.9298 42.3856 32.9966 41.6576 33.1074L41.9584 35.0846C42.7024 34.9714 43.1169 34.9102 43.228 34.8963L42.98 32.9117ZM41.633 33.1114C40.9612 33.2309 40.3483 33.288 39.792 33.288V35.288C40.4837 35.288 41.2148 35.2171 41.983 35.0806L41.633 33.1114ZM39.792 33.288C38.0515 33.288 37.0682 32.91 36.5631 32.4049L35.1489 33.8191C36.2118 34.882 37.8525 35.288 39.792 35.288V33.288ZM36.5631 32.4049C36.0426 31.8844 35.68 30.97 35.68 29.44H33.68C33.68 31.238 34.1014 32.7716 35.1489 33.8191L36.5631 32.4049ZM35.68 29.44V22.84H33.68V29.44H35.68ZM35.68 22.84C35.68 21.31 36.0426 20.3956 36.5631 19.8751L35.1489 18.4609C34.1014 19.5084 33.68 21.042 33.68 22.84H35.68ZM36.5631 19.8751C37.0682 19.37 38.0515 18.992 39.792 18.992V16.992C37.8525 16.992 36.2118 17.398 35.1489 18.4609L36.5631 19.8751ZM56.8517 19.336L56.1254 20.0234V20.0234L56.8517 19.336ZM56.8517 32.944L56.1254 32.2566L56.8517 32.944ZM48.9317 32.944L48.2054 33.6314L48.9317 32.944ZM48.9317 19.336L49.658 20.0234V20.0234L48.9317 19.336ZM50.4917 20.584L49.7952 19.8664L49.7899 19.8716L49.7846 19.8769L50.4917 20.584ZM50.4917 31.696L49.7741 32.3925L49.7845 32.4032L49.7952 32.4136L50.4917 31.696ZM55.2677 31.696L55.9748 32.4031L55.2677 31.696ZM55.2677 20.608L54.5501 21.3045L54.5605 21.3152L54.5712 21.3256L55.2677 20.608ZM52.8917 18.992C54.5344 18.992 55.538 19.4027 56.1254 20.0234L57.578 18.6486C56.4694 17.4773 54.8329 16.992 52.8917 16.992V18.992ZM56.1254 20.0234C56.7453 20.6784 57.1237 21.6718 57.1237 23.152H59.1237C59.1237 21.3362 58.6541 19.7856 57.578 18.6486L56.1254 20.0234ZM57.1237 23.152V29.128H59.1237V23.152H57.1237ZM57.1237 29.128C57.1237 30.6082 56.7453 31.6016 56.1254 32.2566L57.578 33.6314C58.6541 32.4944 59.1237 30.9438 59.1237 29.128H57.1237ZM56.1254 32.2566C55.538 32.8773 54.5344 33.288 52.8917 33.288V35.288C54.8329 35.288 56.4694 34.8027 57.578 33.6314L56.1254 32.2566ZM52.8917 33.288C51.2489 33.288 50.2454 32.8773 49.658 32.2566L48.2054 33.6314C49.314 34.8027 50.9504 35.288 52.8917 35.288V33.288ZM49.658 32.2566C49.0381 31.6016 48.6597 30.6082 48.6597 29.128H46.6597C46.6597 30.9438 47.1293 32.4944 48.2054 33.6314L49.658 32.2566ZM48.6597 29.128V23.152H46.6597V29.128H48.6597ZM48.6597 23.152C48.6597 21.6718 49.0381 20.6784 49.658 20.0234L48.2054 18.6486C47.1293 19.7856 46.6597 21.3362 46.6597 23.152H48.6597ZM49.658 20.0234C50.2454 19.4027 51.2489 18.992 52.8917 18.992V16.992C50.9504 16.992 49.314 17.4773 48.2054 18.6486L49.658 20.0234ZM52.8917 18.792C51.6791 18.792 50.5888 19.0962 49.7952 19.8664L51.1882 21.3016C51.4826 21.0158 51.9923 20.792 52.8917 20.792V18.792ZM49.7846 19.8769C49.0082 20.6533 48.6997 21.7235 48.6997 22.912H50.6997C50.6997 22.0525 50.9192 21.5707 51.1988 21.2911L49.7846 19.8769ZM48.6997 22.912V29.344H50.6997V22.912H48.6997ZM48.6997 29.344C48.6997 30.5347 49.009 31.6042 49.7741 32.3925L51.2093 30.9995C50.9184 30.6998 50.6997 30.2013 50.6997 29.344H48.6997ZM49.7952 32.4136C50.5888 33.1838 51.6791 33.488 52.8917 33.488V31.488C51.9923 31.488 51.4826 31.2642 51.1882 30.9784L49.7952 32.4136ZM52.8917 33.488C54.1018 33.488 55.1931 33.1848 55.9748 32.4031L54.5606 30.9889C54.2863 31.2632 53.7935 31.488 52.8917 31.488V33.488ZM55.9748 32.4031C56.762 31.6159 57.0837 30.5425 57.0837 29.344H55.0837C55.0837 30.1935 54.8614 30.6881 54.5606 30.9889L55.9748 32.4031ZM57.0837 29.344V22.936H55.0837V29.344H57.0837ZM57.0837 22.936C57.0837 21.7396 56.7627 20.6655 55.9642 19.8904L54.5712 21.3256C54.8606 21.6065 55.0837 22.0844 55.0837 22.936H57.0837ZM55.9853 19.9115C55.2048 19.1074 54.1095 18.792 52.8917 18.792V20.792C53.7858 20.792 54.2746 21.0206 54.5501 21.3045L55.9853 19.9115ZM70.6078 34L69.6763 34.3638L69.9248 35H70.6078V34ZM65.4238 20.728L66.3553 20.3642L64.4238 20.728H65.4238ZM65.4238 34V35H66.4238V34H65.4238ZM63.4078 34H62.4078V35H63.4078V34ZM63.4078 18.28V17.28H62.4078V18.28H63.4078ZM66.6718 18.28L67.6055 17.922L67.3594 17.28H66.6718V18.28ZM71.7598 31.552L70.8261 31.91L72.7598 31.552H71.7598ZM71.7598 18.28V17.28H70.7598V18.28H71.7598ZM73.7758 18.28H74.7758V17.28H73.7758V18.28ZM73.7758 34V35H74.7758V34H73.7758ZM71.5393 33.6362L66.3553 20.3642L64.4923 21.0918L69.6763 34.3638L71.5393 33.6362ZM64.4238 20.728V34H66.4238V20.728H64.4238ZM65.4238 33H63.4078V35H65.4238V33ZM64.4078 34V18.28H62.4078V34H64.4078ZM63.4078 19.28H66.6718V17.28H63.4078V19.28ZM65.7381 18.638L70.8261 31.91L72.6936 31.194L67.6055 17.922L65.7381 18.638ZM72.7598 31.552V18.28H70.7598V31.552H72.7598ZM71.7598 19.28H73.7758V17.28H71.7598V19.28ZM72.7758 18.28V34H74.7758V18.28H72.7758ZM73.7758 33H70.6078V35H73.7758V33ZM89.2566 18.28H90.2566V17.28H89.2566V18.28ZM89.2566 20.128V21.128H90.2566V20.128H89.2566ZM84.6966 20.128V19.128H83.6966V20.128H84.6966ZM84.6966 34V35H85.6966V34H84.6966ZM82.6566 34H81.6566V35H82.6566V34ZM82.6566 20.128H83.6566V19.128H82.6566V20.128ZM78.0966 20.128H77.0966V21.128H78.0966V20.128ZM78.0966 18.28V17.28H77.0966V18.28H78.0966ZM88.2566 18.28V20.128H90.2566V18.28H88.2566ZM89.2566 19.128H84.6966V21.128H89.2566V19.128ZM83.6966 20.128V34H85.6966V20.128H83.6966ZM84.6966 33H82.6566V35H84.6966V33ZM83.6566 34V20.128H81.6566V34H83.6566ZM82.6566 19.128H78.0966V21.128H82.6566V19.128ZM79.0966 20.128V18.28H77.0966V20.128H79.0966ZM78.0966 19.28H89.2566V17.28H78.0966V19.28ZM97.9883 18.28L98.9443 17.9866L98.7274 17.28H97.9883V18.28ZM102.812 34V35H104.165L103.768 33.7066L102.812 34ZM100.604 34L99.642 34.2722L99.8479 35H100.604V34ZM99.5723 30.352L100.534 30.0798L100.329 29.352H99.5723V30.352ZM93.7882 30.352V29.352H93.0319L92.826 30.0798L93.7882 30.352ZM92.7563 34V35H93.5126L93.7185 34.2722L92.7563 34ZM90.6683 34L89.7118 33.708L89.3173 35H90.6683V34ZM95.4683 18.28V17.28H94.728L94.5118 17.988L95.4683 18.28ZM96.6922 20.152L97.6543 19.8791L96.6971 16.5047L95.7309 19.8766L96.6922 20.152ZM94.2923 28.528L93.3309 28.2526L92.9655 29.528H94.2923V28.528ZM99.0683 28.528V29.528H100.391L100.03 28.2551L99.0683 28.528ZM97.0322 18.5734L101.856 34.2934L103.768 33.7066L98.9443 17.9866L97.0322 18.5734ZM102.812 33H100.604V35H102.812V33ZM101.566 33.7278L100.534 30.0798L98.61 30.6242L99.642 34.2722L101.566 33.7278ZM99.5723 29.352H93.7882V31.352H99.5723V29.352ZM92.826 30.0798L91.794 33.7278L93.7185 34.2722L94.7505 30.6242L92.826 30.0798ZM92.7563 33H90.6683V35H92.7563V33ZM91.6247 34.292L96.4247 18.572L94.5118 17.988L89.7118 33.708L91.6247 34.292ZM95.4683 19.28H97.9883V17.28H95.4683V19.28ZM95.7309 19.8766L93.3309 28.2526L95.2536 28.8034L97.6536 20.4274L95.7309 19.8766ZM94.2923 29.528H99.0683V27.528H94.2923V29.528ZM100.03 28.2551L97.6543 19.8791L95.7302 20.4249L98.1062 28.8009L100.03 28.2551ZM113.269 18.184L113.094 19.1686L113.106 19.1707L113.118 19.1726L113.269 18.184ZM114.565 18.376L115.565 18.4027L115.589 17.4962L114.689 17.3837L114.565 18.376ZM114.517 20.176L114.338 21.1599L115.485 21.3685L115.517 20.2027L114.517 20.176ZM108.877 31.792L108.182 32.5114L108.195 32.5236L108.208 32.5353L108.877 31.792ZM114.517 32.056L115.517 32.03L115.486 30.8634L114.338 31.0721L114.517 32.056ZM114.565 33.904L114.689 34.8963L115.588 34.7839L115.565 33.878L114.565 33.904ZM113.269 34.096L113.118 33.1074L113.106 33.1093L113.094 33.1114L113.269 34.096ZM107.317 33.112L106.61 33.8191L107.317 33.112ZM107.317 19.168L106.61 18.4609L107.317 19.168ZM111.253 18.992C111.809 18.992 112.422 19.0491 113.094 19.1686L113.444 17.1994C112.676 17.0629 111.945 16.992 111.253 16.992V18.992ZM113.118 19.1726C113.847 19.2834 114.296 19.3502 114.441 19.3683L114.689 17.3837C114.578 17.3698 114.163 17.3086 113.419 17.1954L113.118 19.1726ZM113.565 18.3493L113.517 20.1493L115.517 20.2027L115.565 18.4027L113.565 18.3493ZM114.696 19.1921C113.27 18.9329 112.112 18.792 111.253 18.792V20.792C111.93 20.792 112.948 20.9071 114.338 21.1599L114.696 19.1921ZM111.253 18.792C110.068 18.792 108.973 19.029 108.219 19.7329L109.583 21.1951C109.789 21.003 110.262 20.792 111.253 20.792V18.792ZM108.219 19.7329C107.444 20.4561 107.181 21.5369 107.181 22.696H109.181C109.181 21.7751 109.398 21.3679 109.583 21.1951L108.219 19.7329ZM107.181 22.696V29.56H109.181V22.696H107.181ZM107.181 29.56C107.181 30.7111 107.432 31.787 108.182 32.5114L109.572 31.0726C109.394 30.901 109.181 30.4889 109.181 29.56H107.181ZM108.208 32.5353C108.964 33.2156 110.063 33.44 111.253 33.44V31.44C110.235 31.44 109.75 31.2324 109.546 31.0487L108.208 32.5353ZM111.253 33.44C112.112 33.44 113.27 33.2991 114.696 33.0399L114.338 31.0721C112.948 31.3249 111.93 31.44 111.253 31.44V33.44ZM113.517 32.082L113.565 33.93L115.565 33.878L115.517 32.03L113.517 32.082ZM114.441 32.9117C114.296 32.9298 113.847 32.9966 113.118 33.1074L113.419 35.0846C114.163 34.9714 114.578 34.9102 114.689 34.8963L114.441 32.9117ZM113.094 33.1114C112.422 33.2309 111.809 33.288 111.253 33.288V35.288C111.945 35.288 112.676 35.2171 113.444 35.0806L113.094 33.1114ZM111.253 33.288C109.512 33.288 108.529 32.91 108.024 32.4049L106.61 33.8191C107.673 34.882 109.313 35.288 111.253 35.288V33.288ZM108.024 32.4049C107.504 31.8844 107.141 30.97 107.141 29.44H105.141C105.141 31.238 105.562 32.7716 106.61 33.8191L108.024 32.4049ZM107.141 29.44V22.84H105.141V29.44H107.141ZM107.141 22.84C107.141 21.31 107.504 20.3956 108.024 19.8751L106.61 18.4609C105.562 19.5084 105.141 21.042 105.141 22.84H107.141ZM108.024 19.8751C108.529 19.37 109.512 18.992 111.253 18.992V16.992C109.313 16.992 107.673 17.398 106.61 18.4609L108.024 19.8751ZM129.321 18.28H130.321V17.28H129.321V18.28ZM129.321 20.128V21.128H130.321V20.128H129.321ZM124.761 20.128V19.128H123.761V20.128H124.761ZM124.761 34V35H125.761V34H124.761ZM122.721 34H121.721V35H122.721V34ZM122.721 20.128H123.721V19.128H122.721V20.128ZM118.161 20.128H117.161V21.128H118.161V20.128ZM118.161 18.28V17.28H117.161V18.28H118.161ZM128.321 18.28V20.128H130.321V18.28H128.321ZM129.321 19.128H124.761V21.128H129.321V19.128ZM123.761 20.128V34H125.761V20.128H123.761ZM124.761 33H122.721V35H124.761V33ZM123.721 34V20.128H121.721V34H123.721ZM122.721 19.128H118.161V21.128H122.721V19.128ZM119.161 20.128V18.28H117.161V20.128H119.161ZM118.161 19.28H129.321V17.28H118.161V19.28Z" fill="black"/>
<defs>
<filter id="filter0_f" x="0" y="0" width="174" height="57" filterUnits="userSpaceOnUse" color-interpolation-filters="sRGB">
<feFlood flood-opacity="0" result="BackgroundImageFix"/>
<feBlend mode="normal" in="SourceGraphic" in2="BackgroundImageFix" result="shape"/>
<feGaussianBlur stdDeviation="2" result="effect1_foregroundBlur"/>
</filter>
<linearGradient id="paint0_linear" x1="87" y1="4" x2="87" y2="53" gradientUnits="userSpaceOnUse">
<stop stop-color="#2168FD"/>
<stop offset="1" stop-color="white" stop-opacity="0"/>
</linearGradient>
<linearGradient id="paint1_linear" x1="87" y1="4" x2="87" y2="53" gradientUnits="userSpaceOnUse">
<stop offset="0.9999" stop-color="#352F2F"/>
<stop offset="1" stop-color="#352F2F" stop-opacity="0"/>
</linearGradient>
<linearGradient id="paint2_linear" x1="85" y1="1" x2="85" y2="50" gradientUnits="userSpaceOnUse">
<stop stop-color="#5C417E"/>
<stop offset="1" stop-color="white" stop-opacity="0"/>
</linearGradient>
</defs>
</svg>
