<svg width="355" height="458" viewBox="0 0 355 458" fill="none" xmlns="http://www.w3.org/2000/svg">
<path d="M276.016 131.49C279.132 131.49 281.656 128.499 281.656 124.808V74.0241C281.656 70.3326 279.132 67.3416 276.016 67.3416C272.901 67.3416 270.377 70.3326 270.377 74.0241V91.8628H251.997V74.0241C251.997 70.3326 249.473 67.3416 246.358 67.3416C243.242 67.3416 240.718 70.3326 240.718 74.0241V124.808C240.718 128.499 243.242 131.49 246.358 131.49C249.473 131.49 251.997 128.499 251.997 124.808V105.227H270.377V124.808C270.377 128.499 272.902 131.49 276.016 131.49Z" fill="url(#paint0_linear)"/>
<path d="M296.051 98.0482C292.936 98.0482 290.412 101.039 290.412 104.731V124.808C290.412 128.499 292.936 131.49 296.051 131.49C299.167 131.49 301.691 128.499 301.691 124.808V104.731C301.691 101.039 299.166 98.0482 296.051 98.0482Z" fill="url(#paint1_linear)"/>
<path d="M301.691 85.8289C301.691 82.1375 299.167 79.1464 296.051 79.1464C292.936 79.1464 290.412 82.1375 290.412 85.8289V88.9973C290.412 92.6887 292.936 95.6798 296.051 95.6798C299.167 95.6798 301.691 92.6887 301.691 88.9973V85.8289Z" fill="url(#paint2_linear)"/>
<path d="M317.978 112.589C321.094 112.589 323.618 109.598 323.618 105.907V74.0241C323.618 70.3326 321.094 67.3416 317.978 67.3416C314.863 67.3416 312.339 70.3326 312.339 74.0241V105.907C312.339 109.598 314.863 112.589 317.978 112.589Z" fill="url(#paint3_linear)"/>
<path d="M323.618 124.808V121.64C323.618 117.949 321.094 114.958 317.978 114.958C314.863 114.958 312.339 117.949 312.339 121.64V124.808C312.339 128.499 314.863 131.49 317.978 131.49C321.094 131.49 323.618 128.499 323.618 124.808Z" fill="url(#paint4_linear)"/>
<path d="M160.872 160.578V134.809C160.872 124.447 153.758 116.016 145.013 116.016H57.4882C48.743 116.016 41.6281 124.447 41.6281 134.809V160.578C41.6281 170.94 48.743 179.37 57.4882 179.37H145.013C153.758 179.369 160.872 170.94 160.872 160.578ZM52.9081 160.578V134.809C52.9081 131.816 54.9632 129.381 57.489 129.381H145.013C147.539 129.381 149.593 131.815 149.593 134.809V160.578C149.593 163.57 147.539 166.005 145.013 166.005H57.4882C54.9632 166.004 52.9081 163.57 52.9081 160.578Z" fill="url(#paint5_linear)"/>
<path d="M77.2112 137.937C74.0967 137.937 71.5716 140.928 71.5716 144.62V150.442C71.5716 154.133 74.0967 157.124 77.2112 157.124C80.3258 157.124 82.8509 154.133 82.8509 150.442V144.62C82.8509 140.929 80.3258 137.937 77.2112 137.937Z" fill="url(#paint6_linear)"/>
<path d="M125.29 137.937C122.175 137.937 119.65 140.928 119.65 144.62V150.442C119.65 154.133 122.175 157.124 125.29 157.124C128.404 157.124 130.929 154.133 130.929 150.442V144.62C130.929 140.929 128.404 137.937 125.29 137.937Z" fill="url(#paint7_linear)"/>
<path d="M81.8087 202.652C78.6941 202.652 76.169 205.643 76.169 209.334C76.169 213.026 78.6941 216.017 81.8087 216.017H120.692C123.807 216.017 126.332 213.026 126.332 209.334C126.332 205.643 123.807 202.652 120.692 202.652H81.8087Z" fill="url(#paint8_linear)"/>
<path d="M74.2125 391.661C74.2125 409.326 86.3415 423.699 101.251 423.699C116.161 423.699 128.29 409.326 128.29 391.661C128.29 373.995 116.161 359.623 101.251 359.623C86.3415 359.623 74.2125 373.995 74.2125 391.661ZM117.01 391.661C117.01 401.958 109.941 410.334 101.25 410.334C92.5601 410.334 85.491 401.958 85.491 391.661C85.491 381.364 92.5601 372.988 101.25 372.988C109.941 372.988 117.01 381.365 117.01 391.661Z" fill="url(#paint9_linear)"/>
<path d="M341.044 30.2367H223.292C215.844 30.2367 209.784 37.4173 209.784 46.2426V152.59C209.784 161.415 215.844 168.596 223.292 168.596H232.452L246.014 196.43C247.022 198.497 248.883 199.771 250.898 199.771C252.913 199.771 254.774 198.497 255.782 196.43L269.344 168.596H301.093C304.209 168.596 306.733 165.605 306.733 161.913C306.733 158.222 304.209 155.231 301.093 155.231H269.054C265.216 155.231 261.641 157.678 259.722 161.615L250.899 179.724L242.075 161.614C240.156 157.677 236.579 155.231 232.744 155.231H223.294C222.064 155.231 221.065 154.047 221.065 152.59V46.2418C221.065 44.785 222.064 43.6008 223.294 43.6008H341.045C342.275 43.6008 343.274 44.785 343.274 46.2418V152.589C343.274 154.046 342.275 155.23 341.045 155.23H323.642C320.527 155.23 318.002 158.221 318.002 161.912C318.002 165.604 320.527 168.595 323.642 168.595H341.044C348.492 168.595 354.552 161.414 354.552 152.589V46.2418C354.552 37.4164 348.492 30.2367 341.044 30.2367Z" fill="url(#paint10_linear)"/>
<path d="M179.769 319.6V305.194C179.769 284.135 169.21 269.426 154.094 269.426H144.902V257.718H174.923C186.578 257.718 196.059 246.484 196.059 232.675V129.958C196.059 89.9383 168.581 57.3793 134.806 57.3793H106.89V42.5263C114.082 39.7134 119.289 31.6792 119.289 22.2275C119.289 10.4413 111.197 0.853271 101.25 0.853271C91.3036 0.853271 83.2118 10.4413 83.2118 22.2266C83.2118 31.6784 88.4191 39.7125 95.6108 42.5254V57.3793H67.6938C55.1241 57.3793 43.035 61.8735 32.7332 70.3754C30.1773 72.4844 29.5487 76.6499 31.3286 79.6775C33.1092 82.7078 36.6246 83.45 39.1797 81.3419C47.5805 74.409 57.4409 70.7434 67.6938 70.7434H134.806C162.362 70.7434 184.78 97.3059 184.78 129.958V232.673C184.78 239.113 180.358 244.351 174.923 244.351H27.5778C22.1427 244.351 17.7212 239.112 17.7212 232.673V129.958C17.7212 118.911 20.314 108.125 25.2182 98.769C26.862 95.6335 26.0491 91.5135 23.403 89.5667C20.7561 87.6172 17.2798 88.5822 15.636 91.7176C9.62042 103.192 6.44117 116.416 6.44117 129.958V232.674C6.44117 246.483 15.9225 257.717 27.5771 257.717H57.598V269.425H48.4069C33.2904 269.425 22.733 284.134 22.733 305.194V319.599C10.3566 320.22 0.448853 332.34 0.448853 347.154V450.363C0.448853 454.055 2.97391 457.046 6.0885 457.046H143.194C146.308 457.046 148.833 454.055 148.833 450.363C148.833 446.672 146.308 443.681 143.194 443.681H11.7274V347.155C11.7274 339.313 17.1114 332.935 23.7286 332.935H178.772C185.39 332.935 190.773 339.313 190.773 347.155V443.681H165.742C162.628 443.681 160.103 446.672 160.103 450.363C160.103 454.055 162.628 457.046 165.742 457.046H196.413C199.528 457.046 202.053 454.055 202.053 450.363V347.155C202.053 332.341 192.145 320.221 179.769 319.6ZM101.25 14.2183C104.978 14.2183 108.01 17.8108 108.01 22.2266C108.01 26.6433 104.978 30.2358 101.25 30.2358C97.523 30.2358 94.4911 26.6433 94.4911 22.2266C94.4911 17.8108 97.5237 14.2183 101.25 14.2183ZM68.8781 257.719H133.623V269.426H68.8781V257.719ZM48.4069 282.791H154.094C162.838 282.791 168.489 291.584 168.489 305.194V319.571H144.903V306.938C144.903 300.064 140.183 294.471 134.381 294.471H68.1201C62.3188 294.471 57.5988 300.064 57.5988 306.938V319.571H34.0123V305.194C34.0123 291.584 39.6625 282.791 48.4069 282.791ZM68.8781 319.57V307.835H133.623V319.57H68.8781Z" fill="url(#paint11_linear)"/>
<defs>
<linearGradient id="paint0_linear" x1="261.187" y1="67.3416" x2="261.187" y2="131.49" gradientUnits="userSpaceOnUse">
<stop stop-color="#4F2F6E"/>
<stop offset="1" stop-color="#4066D8"/>
</linearGradient>
<linearGradient id="paint1_linear" x1="296.051" y1="98.0482" x2="296.051" y2="131.49" gradientUnits="userSpaceOnUse">
<stop stop-color="#4F2F6E"/>
<stop offset="1" stop-color="#4066D8"/>
</linearGradient>
<linearGradient id="paint2_linear" x1="296.051" y1="79.1464" x2="296.051" y2="95.6798" gradientUnits="userSpaceOnUse">
<stop stop-color="#4F2F6E"/>
<stop offset="1" stop-color="#4066D8"/>
</linearGradient>
<linearGradient id="paint3_linear" x1="317.978" y1="67.3416" x2="317.978" y2="112.589" gradientUnits="userSpaceOnUse">
<stop stop-color="#4F2F6E"/>
<stop offset="1" stop-color="#4066D8"/>
</linearGradient>
<linearGradient id="paint4_linear" x1="317.978" y1="114.958" x2="317.978" y2="131.49" gradientUnits="userSpaceOnUse">
<stop stop-color="#4F2F6E"/>
<stop offset="1" stop-color="#4066D8"/>
</linearGradient>
<linearGradient id="paint5_linear" x1="101.25" y1="116.016" x2="101.25" y2="179.37" gradientUnits="userSpaceOnUse">
<stop stop-color="#4F2F6E"/>
<stop offset="1" stop-color="#4066D8"/>
</linearGradient>
<linearGradient id="paint6_linear" x1="77.2112" y1="137.937" x2="77.2112" y2="157.124" gradientUnits="userSpaceOnUse">
<stop stop-color="#4F2F6E"/>
<stop offset="1" stop-color="#4066D8"/>
</linearGradient>
<linearGradient id="paint7_linear" x1="125.29" y1="137.937" x2="125.29" y2="157.124" gradientUnits="userSpaceOnUse">
<stop stop-color="#4F2F6E"/>
<stop offset="1" stop-color="#4066D8"/>
</linearGradient>
<linearGradient id="paint8_linear" x1="101.25" y1="202.652" x2="101.25" y2="216.017" gradientUnits="userSpaceOnUse">
<stop stop-color="#4F2F6E"/>
<stop offset="1" stop-color="#4066D8"/>
</linearGradient>
<linearGradient id="paint9_linear" x1="101.251" y1="359.623" x2="101.251" y2="423.699" gradientUnits="userSpaceOnUse">
<stop stop-color="#4F2F6E"/>
<stop offset="1" stop-color="#4066D8"/>
</linearGradient>
<linearGradient id="paint10_linear" x1="282.168" y1="30.2367" x2="282.168" y2="199.771" gradientUnits="userSpaceOnUse">
<stop stop-color="#4F2F6E"/>
<stop offset="1" stop-color="#4066D8"/>
</linearGradient>
<linearGradient id="paint11_linear" x1="101.251" y1="0.853271" x2="101.251" y2="457.046" gradientUnits="userSpaceOnUse">
<stop stop-color="#4F2F6E"/>
<stop offset="1" stop-color="#4066D8"/>
</linearGradient>
</defs>
</svg>
