<svg width="60" height="65" viewBox="0 0 60 65" fill="none" xmlns="http://www.w3.org/2000/svg">
<path fill-rule="evenodd" clip-rule="evenodd" d="M30 0.10083C46.5686 0.10083 60 14.518 60 32.3027C60 50.0873 46.5686 64.5045 30 64.5045C13.4314 64.5045 0 50.0873 0 32.3027C0 14.518 13.4314 0.10083 30 0.10083ZM26.7204 26.9349H31.9219V29.7971L31.9971 29.7973C32.7214 28.4023 34.4928 26.9351 37.1339 26.9351C42.6264 26.9349 43.6422 30.604 43.6422 35.3766V45.099L38.2177 45.0992V36.4807C38.2177 34.426 38.1779 31.7814 35.3971 31.7814C32.5727 31.7814 32.1398 34.0178 32.1398 36.3311V45.0994H26.7202L26.7204 26.9349ZM22.9599 21.8894C22.9599 23.5607 21.6963 24.917 20.1393 24.917C18.5823 24.917 17.3183 23.5607 17.3183 21.8894C17.3183 20.2181 18.5823 18.8618 20.1393 18.8618C21.6963 18.8618 22.9599 20.2181 22.9599 21.8894ZM17.3183 26.9349H22.9599V45.0992H17.3183V26.9349Z" fill="white"/>
<path fill-rule="evenodd" clip-rule="evenodd" d="M30 0.10083C46.5686 0.10083 60 14.518 60 32.3027C60 50.0873 46.5686 64.5045 30 64.5045C13.4314 64.5045 0 50.0873 0 32.3027C0 14.518 13.4314 0.10083 30 0.10083ZM26.7204 26.9349H31.9219V29.7971L31.9971 29.7973C32.7214 28.4023 34.4928 26.9351 37.1339 26.9351C42.6264 26.9349 43.6422 30.604 43.6422 35.3766V45.099L38.2177 45.0992V36.4807C38.2177 34.426 38.1779 31.7814 35.3971 31.7814C32.5727 31.7814 32.1398 34.0178 32.1398 36.3311V45.0994H26.7202L26.7204 26.9349ZM22.9599 21.8894C22.9599 23.5607 21.6963 24.917 20.1393 24.917C18.5823 24.917 17.3183 23.5607 17.3183 21.8894C17.3183 20.2181 18.5823 18.8618 20.1393 18.8618C21.6963 18.8618 22.9599 20.2181 22.9599 21.8894ZM17.3183 26.9349H22.9599V45.0992H17.3183V26.9349Z" fill="url(#paint0_linear)"/>
<defs>
<linearGradient id="paint0_linear" x1="30" y1="0.10083" x2="30" y2="64.5045" gradientUnits="userSpaceOnUse">
<stop stop-color="#5C417E"/>
<stop offset="1" stop-color="white" stop-opacity="0"/>
</linearGradient>
</defs>
</svg>
