<svg width="52" height="50" viewBox="0 0 52 50" fill="none" xmlns="http://www.w3.org/2000/svg">
<path d="M44.382 7.31965C34.2269 -2.44195 17.7645 -2.43961 7.61245 7.32503C-2.53963 17.0897 -2.53719 32.9187 7.61803 42.6803C17.7733 52.442 34.2355 52.4396 44.3876 42.675C49.2632 37.9854 52.0015 31.6256 52 24.9946C51.9986 18.3648 49.2583 12.007 44.382 7.31965ZM39.3761 34.8247C39.375 34.8258 39.3739 34.8269 39.3726 34.828V34.8197L38.0553 36.078C36.3516 37.7369 33.8703 38.4194 31.5119 37.878C29.1359 37.2665 26.8771 36.293 24.8213 34.9947C22.9113 33.821 21.1413 32.4489 19.5433 30.903C18.073 29.4996 16.7521 27.9586 15.5999 26.303C14.3397 24.5216 13.3423 22.581 12.6359 20.5363C11.8262 18.1344 12.4972 15.4987 14.3693 13.728L15.9119 12.2447C16.3408 11.8305 17.0377 11.829 17.4685 12.2414C17.4696 12.2425 17.4708 12.2436 17.4719 12.2447L22.3426 16.928C22.7734 17.3404 22.7749 18.0106 22.346 18.4247C22.3449 18.4258 22.3438 18.4269 22.3426 18.428L19.4826 21.178C18.6619 21.9585 18.5587 23.1987 19.2399 24.0947C20.2743 25.4598 21.419 26.7442 22.6633 27.9364C24.0505 29.2761 25.5586 30.4947 27.1699 31.5781C28.1009 32.2025 29.3632 32.0973 30.1685 31.3281L32.9332 28.6281C33.3621 28.2139 34.059 28.2124 34.4897 28.6248C34.4908 28.6259 34.492 28.6269 34.4932 28.6281L39.3725 33.3281C39.8035 33.7404 39.805 34.4104 39.3761 34.8247Z" fill="url(#paint0_linear)"/>
<defs>
<linearGradient id="paint0_linear" x1="26" y1="0" x2="26" y2="50" gradientUnits="userSpaceOnUse">
<stop stop-color="#2168FD"/>
<stop offset="1" stop-color="#FFB6FF"/>
</linearGradient>
</defs>
</svg>
