<svg width="56" height="56" viewBox="2 0 58 56" fill="none" xmlns="http://www.w3.org/2000/svg">
<path d="M50.382 13.3197C40.2269 3.55805 23.7645 3.56039 13.6124 13.325C3.46037 23.0897 3.46281 38.9187 13.618 48.6803C23.7733 58.442 40.2355 58.4396 50.3876 48.675C55.2632 43.9854 58.0015 37.6256 58 30.9946C57.9986 24.3648 55.2583 18.007 50.382 13.3197ZM45.3761 40.8247C45.375 40.8258 45.3739 40.8269 45.3726 40.828V40.8197L44.0553 42.078C42.3516 43.7369 39.8703 44.4194 37.5119 43.878C35.1359 43.2665 32.8771 42.293 30.8213 40.9947C28.9113 39.821 27.1413 38.4489 25.5433 36.903C24.073 35.4996 22.7521 33.9586 21.5999 32.303C20.3397 30.5216 19.3423 28.581 18.6359 26.5363C17.8262 24.1344 18.4972 21.4987 20.3693 19.728L21.9119 18.2447C22.3408 17.8305 23.0377 17.829 23.4685 18.2414C23.4696 18.2425 23.4708 18.2436 23.4719 18.2447L28.3426 22.928C28.7734 23.3404 28.7749 24.0106 28.346 24.4247C28.3449 24.4258 28.3438 24.4269 28.3426 24.428L25.4826 27.178C24.6619 27.9585 24.5587 29.1987 25.2399 30.0947C26.2743 31.4598 27.419 32.7442 28.6633 33.9364C30.0505 35.2761 31.5586 36.4947 33.1699 37.5781C34.1009 38.2025 35.3632 38.0973 36.1685 37.3281L38.9332 34.6281C39.3621 34.2139 40.059 34.2124 40.4897 34.6248C40.4908 34.6259 40.492 34.6269 40.4932 34.6281L45.3725 39.3281C45.8035 39.7404 45.805 40.4104 45.3761 40.8247Z" fill="url(#paint0_linear)"/>
<defs>
<linearGradient id="paint0_linear" x1="32" y1="6" x2="32" y2="56" gradientUnits="userSpaceOnUse">
<stop stop-color="#2168FD"/>
<stop offset="1" stop-color="#FFB6FF"/>
</linearGradient>
</defs>
</svg>
