<svg width="45" height="33" viewBox="0 0 45 33" fill="none" xmlns="http://www.w3.org/2000/svg">
<path d="M39.7266 0H5.27344C2.36566 0 0 2.08352 0 4.6445V8.47582L19.3527 21.1538C20.2939 21.7704 21.397 22.0787 22.5 22.0787C23.603 22.0787 24.7061 21.7705 25.6473 21.1538L45 8.47582V4.6445C45 2.08352 42.6343 0 39.7266 0ZM41.4844 6.91999L23.5492 18.6693C22.9216 19.0804 22.0784 19.0804 21.4509 18.6693L3.51562 6.91999V4.6445C3.51562 3.79084 4.30418 3.09633 5.27344 3.09633H39.7266C40.6958 3.09633 41.4844 3.79084 41.4844 4.6445V6.91999ZM41.4844 14.6378L45 12.3348V27.5573C45 30.1183 42.6343 32.2018 39.7266 32.2018H5.27344C2.36566 32.2018 0 30.1183 0 27.5573V12.3348L3.51562 14.6378V27.5573C3.51562 28.411 4.30418 29.1055 5.27344 29.1055H39.7266C40.6958 29.1055 41.4844 28.411 41.4844 27.5573V14.6378Z" fill="url(#paint0_linear)"/>
<defs>
<linearGradient id="paint0_linear" x1="22.5" y1="0" x2="22.5" y2="32.2018" gradientUnits="userSpaceOnUse">
<stop stop-color="#AB5AF1"/>
<stop offset="1" stop-color="#589CF9"/>
</linearGradient>
</defs>
</svg>
