<svg width="60" height="65" viewBox="0 0 60 65" fill="none" xmlns="http://www.w3.org/2000/svg">
<path d="M30 0.247559C13.434 0.247559 0 14.6675 0 32.4494C0 50.2313 13.434 64.6512 30 64.6512C46.566 64.6512 60 50.2313 60 32.4494C60 14.6675 46.566 0.247559 30 0.247559ZM43.6977 25.3551C43.7109 25.6721 43.7173 25.9905 43.7173 26.3103C43.7173 36.0771 36.7914 47.3396 24.1255 47.3401C20.2368 47.3401 16.6182 46.1166 13.5709 44.02C14.1096 44.0883 14.6581 44.1222 15.2133 44.1222C18.4396 44.1222 21.4087 42.9409 23.7657 40.9583C20.7513 40.8983 18.2098 38.7614 17.3328 35.8246C17.7525 35.911 18.1842 35.9582 18.6269 35.9582C19.2554 35.9582 19.8642 35.8673 20.4428 35.6978C17.292 35.0207 14.9185 32.0317 14.9185 28.4527C14.9185 28.4193 14.9185 28.3893 14.9194 28.3583C15.8473 28.9121 16.9084 29.2452 18.0382 29.2826C16.1893 27.9584 14.9739 25.6947 14.9739 23.1302C14.9739 21.7761 15.3149 20.5074 15.9064 19.4151C19.3021 23.8874 24.3768 26.8287 30.0998 27.1378C29.9817 26.5963 29.9208 26.0322 29.9208 25.4524C29.9208 21.3722 33.0048 18.0619 36.8074 18.0619C38.7881 18.0619 40.5771 18.9606 41.8336 20.3973C43.4024 20.0651 44.8755 19.4499 46.2062 18.6033C45.6912 20.3285 44.5999 21.7761 43.1781 22.6915C44.5711 22.5126 45.8986 22.1161 47.1323 21.5274C46.2108 23.0099 45.0421 24.312 43.6977 25.3551Z" fill="white"/>
<path d="M30 0.247559C13.434 0.247559 0 14.6675 0 32.4494C0 50.2313 13.434 64.6512 30 64.6512C46.566 64.6512 60 50.2313 60 32.4494C60 14.6675 46.566 0.247559 30 0.247559ZM43.6977 25.3551C43.7109 25.6721 43.7173 25.9905 43.7173 26.3103C43.7173 36.0771 36.7914 47.3396 24.1255 47.3401C20.2368 47.3401 16.6182 46.1166 13.5709 44.02C14.1096 44.0883 14.6581 44.1222 15.2133 44.1222C18.4396 44.1222 21.4087 42.9409 23.7657 40.9583C20.7513 40.8983 18.2098 38.7614 17.3328 35.8246C17.7525 35.911 18.1842 35.9582 18.6269 35.9582C19.2554 35.9582 19.8642 35.8673 20.4428 35.6978C17.292 35.0207 14.9185 32.0317 14.9185 28.4527C14.9185 28.4193 14.9185 28.3893 14.9194 28.3583C15.8473 28.9121 16.9084 29.2452 18.0382 29.2826C16.1893 27.9584 14.9739 25.6947 14.9739 23.1302C14.9739 21.7761 15.3149 20.5074 15.9064 19.4151C19.3021 23.8874 24.3768 26.8287 30.0998 27.1378C29.9817 26.5963 29.9208 26.0322 29.9208 25.4524C29.9208 21.3722 33.0048 18.0619 36.8074 18.0619C38.7881 18.0619 40.5771 18.9606 41.8336 20.3973C43.4024 20.0651 44.8755 19.4499 46.2062 18.6033C45.6912 20.3285 44.5999 21.7761 43.1781 22.6915C44.5711 22.5126 45.8986 22.1161 47.1323 21.5274C46.2108 23.0099 45.0421 24.312 43.6977 25.3551Z" fill="url(#paint0_linear)"/>
<defs>
<linearGradient id="paint0_linear" x1="30" y1="0.247559" x2="30" y2="64.6512" gradientUnits="userSpaceOnUse">
<stop stop-color="#5C417E"/>
<stop offset="1" stop-color="white" stop-opacity="0"/>
</linearGradient>
</defs>
</svg>
