<svg width="124" height="121" viewBox="0 0 124 121" fill="none" xmlns="http://www.w3.org/2000/svg">
<g filter="url(#filter0_d)">
<path d="M7 107.818C9.03368 67.0073 9.30311 45.3175 7 3.3177C16.3728 2.73296 21.3525 2.72587 28 5.3177C36.5366 11.3473 39.2863 14.2663 43.5 19.3177L63.5 6.81787L74 5.3177H91L101.5 8.81787L110.5 16.8179L116 25.8179C116.845 31.5856 117.317 34.8163 116 36.8179C116.074 40.7067 115.449 43.0471 114 47.3179C111.104 53.1888 108.654 54.388 104 55.8179C91.8361 59.6721 85.9992 58.6441 76.5 53.8179C74.0788 50.2132 71.9598 47.2636 70 44.8536C71.479 63.3478 75.387 69.5158 88 72.8179C100.538 74.68 106.923 73.9543 116 66.3179C116.884 72.186 117.159 75.6706 116 83.3179C112.151 98.195 106.741 103.534 92.5 108.818C72.7398 112.964 62.8333 109.95 49.1938 86.3179C47.1815 90.8134 44.7407 95.6028 41.5 100.818C29.773 109.446 21.9364 110.024 7 107.818Z" fill="url(#paint0_linear)"/>
<path d="M7 3.3177C9.30311 45.3175 9.03368 67.0073 7 107.818M7 3.3177C23.0609 8.55184 28.046 16.0223 28 39.3177M7 3.3177C16.3728 2.73296 21.3525 2.72587 28 5.3177C36.5366 11.3473 39.2863 14.2663 43.5 19.3177M7 107.818C12.3442 82.3516 15.1807 68.1461 28 39.3177M7 107.818C21.9364 110.024 29.773 109.446 41.5 100.818C44.7407 95.6028 47.1815 90.8134 49.1938 86.3179M28 39.3177L43.5 19.3177M28 39.3177C36.4764 34.5579 42.3787 32.7049 54.5 34.8179C60.4392 35.6879 64.6194 38.2369 70 44.8536M43.5 19.3177L63.5 6.81787L74 5.3177H91L101.5 8.81787L110.5 16.8179L116 25.8179C116.845 31.5856 117.317 34.8163 116 36.8179C116.074 40.7067 115.449 43.0471 114 47.3179C111.104 53.1888 108.654 54.388 104 55.8179C91.8361 59.6721 85.9992 58.6441 76.5 53.8179C74.0788 50.2132 71.9598 47.2636 70 44.8536M70 44.8536C57.9815 58.7829 56.1406 70.7988 49.1938 86.3179M70 44.8536C71.479 63.3478 75.387 69.5158 88 72.8179C100.538 74.68 106.923 73.9543 116 66.3179C116.884 72.186 117.159 75.6706 116 83.3179C112.151 98.195 106.741 103.534 92.5 108.818C72.7398 112.964 62.8333 109.95 49.1938 86.3179" stroke="black" stroke-width="5"/>
</g>
<defs>
<filter id="filter0_d" x="0.367676" y="0.499512" width="122.952" height="120.381" filterUnits="userSpaceOnUse" color-interpolation-filters="sRGB">
<feFlood flood-opacity="0" result="BackgroundImageFix"/>
<feColorMatrix in="SourceAlpha" type="matrix" values="0 0 0 0 0 0 0 0 0 0 0 0 0 0 0 0 0 0 127 0"/>
<feOffset dy="4"/>
<feGaussianBlur stdDeviation="2"/>
<feColorMatrix type="matrix" values="0 0 0 0 0 0 0 0 0 0 0 0 0 0 0 0 0 0 0.25 0"/>
<feBlend mode="normal" in2="BackgroundImageFix" result="effect1_dropShadow"/>
<feBlend mode="normal" in="SourceGraphic" in2="effect1_dropShadow" result="shape"/>
</filter>
<linearGradient id="paint0_linear" x1="61.9101" y1="3" x2="61.9101" y2="110.38" gradientUnits="userSpaceOnUse">
<stop stop-color="#997BB4"/>
<stop offset="1" stop-color="#5A6CAF"/>
</linearGradient>
</defs>
</svg>
