<svg width="78" height="78" viewBox="0 0 78 78" fill="none" xmlns="http://www.w3.org/2000/svg">
<g filter="url(#filter0_d)">
<path d="M7 65.2599C8.18845 40.8525 8.3459 27.8805 7 2.76178C12.4773 2.41207 15.3874 2.40783 19.2721 3.95792C24.2607 7.56402 25.8676 9.30976 28.33 12.3309L40.0177 4.85512L46.1538 3.95792H56.0883L62.2244 6.05126L67.4838 10.8358L70.6979 16.2184C71.1916 19.6679 71.4678 21.6001 70.6979 22.7972C70.7413 25.1229 70.3757 26.5226 69.5292 29.0769C67.8371 32.5881 66.4049 33.3053 63.6853 34.1604C56.5769 36.4655 53.1659 35.8507 47.6147 32.9643C46.1998 30.8085 44.9615 29.0444 43.8162 27.6031C44.6805 38.6638 46.9643 42.3527 54.3352 44.3276C61.6622 45.4412 65.3932 45.0072 70.6979 40.4402C71.2148 43.9497 71.3751 46.0337 70.6979 50.6073C68.4484 59.5048 65.2869 62.6978 56.9649 65.858C45.4173 68.3375 39.6281 66.5352 31.6574 52.4015C30.4815 55.0901 29.0551 57.9545 27.1613 61.0735C20.3082 66.2339 15.7286 66.5792 7 65.2599Z" fill="url(#paint0_linear)"/>
<path d="M7 2.76178C8.3459 27.8805 8.18845 40.8525 7 65.2599M7 2.76178C16.3857 5.89215 19.299 10.36 19.2721 24.2922M7 2.76178C12.4773 2.41207 15.3874 2.40783 19.2721 3.95792C24.2607 7.56402 25.8676 9.30976 28.33 12.3309M7 65.2599C10.123 50.0294 11.7807 41.5336 19.2721 24.2922M7 65.2599C15.7286 66.5792 20.3082 66.2339 27.1613 61.0735C29.0551 57.9545 30.4815 55.0901 31.6574 52.4015M19.2721 24.2922L28.33 12.3309M19.2721 24.2922C24.2255 21.4455 27.6748 20.3373 34.7583 21.601C38.2291 22.1214 40.6719 23.6458 43.8162 27.6031M28.33 12.3309L40.0177 4.85512L46.1538 3.95792H56.0883L62.2244 6.05126L67.4838 10.8358L70.6979 16.2184C71.1916 19.6679 71.4678 21.6001 70.6979 22.7972C70.7413 25.1229 70.3757 26.5226 69.5292 29.0769C67.8371 32.5881 66.4049 33.3053 63.6853 34.1604C56.5769 36.4656 53.1659 35.8507 47.6147 32.9643C46.1998 30.8085 44.9615 29.0444 43.8162 27.6031M43.8162 27.6031C36.7928 35.9337 35.717 43.1201 31.6574 52.4015M43.8162 27.6031C44.6805 38.6638 46.9643 42.3527 54.3352 44.3276C61.6622 45.4412 65.3933 45.0072 70.6979 40.4402C71.2148 43.9497 71.3751 46.0337 70.6979 50.6073C68.4484 59.5048 65.2869 62.6978 56.9649 65.858C45.4173 68.3375 39.6281 66.5352 31.6574 52.4015" stroke="black" stroke-width="5"/>
</g>
<defs>
<filter id="filter0_d" x="0.371094" y="0.0712891" width="77.3063" height="77.2212" filterUnits="userSpaceOnUse" color-interpolation-filters="sRGB">
<feFlood flood-opacity="0" result="BackgroundImageFix"/>
<feColorMatrix in="SourceAlpha" type="matrix" values="0 0 0 0 0 0 0 0 0 0 0 0 0 0 0 0 0 0 127 0"/>
<feOffset dy="4"/>
<feGaussianBlur stdDeviation="2"/>
<feColorMatrix type="matrix" values="0 0 0 0 0 0 0 0 0 0 0 0 0 0 0 0 0 0 0.25 0"/>
<feBlend mode="normal" in2="BackgroundImageFix" result="effect1_dropShadow"/>
<feBlend mode="normal" in="SourceGraphic" in2="effect1_dropShadow" result="shape"/>
</filter>
<linearGradient id="paint0_linear" x1="39.0886" y1="2.57178" x2="39.0886" y2="66.7923" gradientUnits="userSpaceOnUse">
<stop stop-color="#997BB4"/>
<stop offset="1" stop-color="#5A6CAF"/>
</linearGradient>
</defs>
</svg>
