<svg width="83" height="87" viewBox="0 0 83 87" fill="none" xmlns="http://www.w3.org/2000/svg">
<path d="M22.9093 70.6342L22.6864 71.0218L23.0468 71.2865C28.4723 75.2702 34.8184 77.3681 41.5 77.3681C45.3414 77.3681 49.0802 76.6713 52.6361 75.2942L53.0213 75.145L52.9474 74.7385C52.2054 70.6551 50.3791 61.9599 46.7933 51.77L46.6202 51.2781L46.136 51.4717C31.8201 57.1956 25.1243 66.7826 22.9093 70.6342ZM61.2247 69.3348L61.3903 70.183L62.043 69.6167C67.6064 64.7904 71.505 58.1219 73.0425 50.758L73.1397 50.2925L72.6796 50.1721C70.3837 49.5716 66.0419 48.6592 60.8358 48.6592C59.3434 48.6592 57.8708 48.7349 56.4321 48.885L55.8147 48.9495L56.0092 49.539C58.8112 58.0324 60.4252 65.241 61.2247 69.3348ZM67.9654 24.2144L67.6046 23.6729L67.1743 24.161C64.7178 26.947 59.6367 31.7798 51.237 35.7293L50.7942 35.9374L50.9927 36.3846C51.4811 37.4849 51.9441 38.5699 52.3754 39.6269C52.4307 39.7636 52.4854 39.8996 52.5395 40.0351L52.6797 40.3857L53.0553 40.3469C55.114 40.1339 57.2846 40.0258 59.5284 40.0258C65.1933 40.0258 70.1733 40.7024 73.0798 41.2026L73.7163 41.3121L73.6629 40.6685C73.1741 34.7707 71.2019 29.0711 67.9654 24.2144ZM61.5018 17.6895L61.8318 17.3027L61.4396 16.9792C55.7633 12.2973 48.7543 9.73767 41.5 9.73767C39.9677 9.73767 38.4403 9.85107 36.9333 10.0762L36.1498 10.1933L36.5926 10.8502C38.8476 14.1953 42.7915 20.3033 46.6338 27.5057L46.8508 27.9124L47.2737 27.7291C55.0841 24.3454 59.5346 19.9948 61.5018 17.6895ZM26.9392 13.8954L26.6811 13.5144L26.2801 13.74C18.647 18.034 12.93 25.427 10.508 34.0763L10.3254 34.7282L11.0022 34.711C15.709 34.5911 25.5615 33.976 36.7766 31.1417L37.4066 30.9825L37.0913 30.4143C32.9297 22.9155 28.8084 16.6545 26.9392 13.8954ZM41.8771 39.6913L41.6943 39.3042L41.2836 39.4251C27.6569 43.4386 14.6139 43.9936 9.7237 44.0472L9.21494 44.0528L9.22938 44.5613C9.42982 51.6212 11.7339 58.4061 15.8134 64.0125L16.238 64.5961L16.6352 63.9935C19.9984 58.8896 28.6805 47.6651 42.6349 42.6382L43.1421 42.4555L42.9218 41.9634C42.5885 41.2193 42.2403 40.4609 41.8771 39.6913ZM82.5 43.4979C82.5 67.2313 64.0852 86.5 41.5 86.5C18.9151 86.5 0.5 67.2313 0.5 43.4979C0.5 19.7668 18.9148 0.5 41.5 0.5C64.0852 0.5 82.5 19.7668 82.5 43.4979Z" fill="#FFB6FF" stroke="black"/>
</svg>
